/* XPM */
static char * error_32_xpm[] = {
"32 32 683 2",
"  	c None",
". 	c #BEBDBD",
"+ 	c #C6C5C5",
"@ 	c #B6B6B6",
"# 	c #AAA9A9",
"$ 	c #A1A0A0",
"% 	c #9D9C9C",
"& 	c #C2C2C2",
"* 	c #D3D2D2",
"= 	c #E0D4D4",
"- 	c #E6C7C7",
"; 	c #E5B2B2",
"> 	c #DF9A9A",
", 	c #DE9999",
"' 	c #E3AFAF",
") 	c #E3C4C4",
"! 	c #E0D3D3",
"~ 	c #D3D1D1",
"{ 	c #C2C1C1",
"] 	c #B8B8B8",
"^ 	c #EFEFEF",
"/ 	c #ACABAB",
"( 	c #CCCACA",
"_ 	c #ECE0E0",
": 	c #ECC6C6",
"< 	c #DF9191",
"[ 	c #D87A7A",
"} 	c #D97B7B",
"| 	c #D77474",
"1 	c #D46868",
"2 	c #D06060",
"3 	c #CD5B5B",
"4 	c #CA5959",
"5 	c #C75959",
"6 	c #D07979",
"7 	c #E3BABA",
"8 	c #E6DBDB",
"9 	c #C8C7C7",
"0 	c #B4B4B4",
"a 	c #B5B5B5",
"b 	c #E4DCDC",
"c 	c #EFC6C6",
"d 	c #E29797",
"e 	c #DB7C7C",
"f 	c #DE7B7B",
"g 	c #DC6969",
"h 	c #D95A59",
"i 	c #D85050",
"j 	c #D64B4B",
"k 	c #D44949",
"l 	c #D24848",
"m 	c #CE4747",
"n 	c #CA4544",
"o 	c #C34242",
"p 	c #BC3D3D",
"q 	c #C76C6C",
"r 	c #E1B6B6",
"s 	c #E1D9D9",
"t 	c #B5B4B4",
"u 	c #EDE4E4",
"v 	c #E4A4A4",
"w 	c #E08F8F",
"x 	c #E07E7D",
"y 	c #DD6161",
"z 	c #DD5454",
"A 	c #DE4E4E",
"B 	c #DF4C4D",
"C 	c #DE4D4D",
"D 	c #DC4C4C",
"E 	c #DA4B4B",
"F 	c #D84949",
"G 	c #D54848",
"H 	c #D14645",
"I 	c #CD4243",
"J 	c #C74040",
"K 	c #BE3B3B",
"L 	c #B94545",
"M 	c #CD8888",
"N 	c #E9E0E0",
"O 	c #C6C6C6",
"P 	c #C7C6C6",
"Q 	c #F5E0E0",
"R 	c #DF8383",
"S 	c #DD6767",
"T 	c #DE5050",
"U 	c #E14E4E",
"V 	c #E04D4C",
"W 	c #DF4C4C",
"X 	c #DE4B4B",
"Y 	c #DC4A4A",
"Z 	c #DB4848",
"` 	c #D84847",
" .	c #D54747",
"..	c #D34545",
"+.	c #D24444",
"@.	c #CE4343",
"#.	c #CB4141",
"$.	c #C73D3D",
"%.	c #C23B3B",
"&.	c #B63737",
"*.	c #C1706F",
"=.	c #EEDBDB",
"-.	c #C5C5C5",
";.	c #D2D2D2",
">.	c #B6B5B5",
",.	c #DE8F8F",
"'.	c #DD7F7F",
").	c #DC5E5E",
"!.	c #DF494A",
"~.	c #DD4444",
"{.	c #DE4A4A",
"].	c #DD4A4A",
"^.	c #DB4849",
"/.	c #D94747",
"(.	c #D64646",
"_.	c #D34444",
":.	c #D14343",
"<.	c #CE4141",
"[.	c #CD4242",
"}.	c #C93C3C",
"|.	c #C63637",
"1.	c #C53C3C",
"2.	c #C23B3A",
"3.	c #BD3837",
"4.	c #B43838",
"5.	c #C17676",
"6.	c #E7DFDF",
"7.	c #B1B1B1",
"8.	c #B1B0B0",
"9.	c #E2DADA",
"0.	c #E2A1A1",
"a.	c #DC7F7F",
"b.	c #D95C5D",
"c.	c #DD4C4C",
"d.	c #DE4848",
"e.	c #E96D6D",
"f.	c #F1999A",
"g.	c #DE5757",
"h.	c #D74444",
"i.	c #D64545",
"j.	c #D24242",
"k.	c #CE4040",
"l.	c #CC3F40",
"m.	c #CA3E3E",
"n.	c #C73B3B",
"o.	c #DA8989",
"p.	c #C54444",
"q.	c #BD3534",
"r.	c #BC3636",
"s.	c #B83232",
"t.	c #B03333",
"u.	c #CB9594",
"v.	c #DBD7D7",
"w.	c #B2B2B2",
"x.	c #C8C6C6",
"y.	c #EDC3C3",
"z.	c #DB8787",
"A.	c #D96262",
"B.	c #DA4B4C",
"C.	c #DD4746",
"D.	c #E87474",
"E.	c #FCDFDF",
"F.	c #FFFBFB",
"G.	c #F5BFBF",
"H.	c #D54D4E",
"I.	c #CF3E3E",
"J.	c #CF4141",
"K.	c #CC3F3F",
"L.	c #C93D3D",
"M.	c #C83C3C",
"N.	c #C33637",
"O.	c #CC5E5E",
"P.	c #DCC7C7",
"Q.	c #DBE1E1",
"R.	c #DCA9A9",
"S.	c #BF4343",
"T.	c #B63030",
"U.	c #B43131",
"V.	c #B02E2D",
"W.	c #AC3F3E",
"X.	c #DAB7B7",
"Y.	c #BEBCBC",
"Z.	c #E8DDDD",
"`.	c #DC9090",
" +	c #D87272",
".+	c #D74B4C",
"++	c #D94646",
"@+	c #E36665",
"#+	c #FCDFDE",
"$+	c #FFFEFE",
"%+	c #FFFFFF",
"&+	c #FFFCFC",
"*+	c #F1B7B8",
"=+	c #D04848",
"-+	c #C93B3A",
";+	c #C63B3B",
">+	c #C23535",
",+	c #CC5D5D",
"'+	c #D9C1C1",
")+	c #D4D6D6",
"!+	c #CFCFCF",
"~+	c #D1D1D1",
"{+	c #D49F9F",
"]+	c #B43636",
"^+	c #AF2C2C",
"/+	c #AD2A2A",
"(+	c #A82A2A",
"_+	c #BE7777",
":+	c #DFDADA",
"<+	c #989898",
"[+	c #BDBDBD",
"}+	c #E8C2C2",
"|+	c #D16A6A",
"1+	c #D35555",
"2+	c #D74646",
"3+	c #D53E3F",
"4+	c #E37171",
"5+	c #FDEEEE",
"6+	c #FDFBFB",
"7+	c #F0C4C4",
"8+	c #CC4C4D",
"9+	c #C13434",
"0+	c #BF3131",
"a+	c #CB6565",
"b+	c #D9C9C9",
"c+	c #D3D6D6",
"d+	c #CECDCD",
"e+	c #C8C8C8",
"f+	c #D3D5D5",
"g+	c #CCB4B4",
"h+	c #A33434",
"i+	c #A82728",
"j+	c #A72627",
"k+	c #A52424",
"l+	c #AA4141",
"m+	c #D7C1C1",
"n+	c #D78888",
"o+	c #D16565",
"p+	c #D14848",
"q+	c #D44241",
"r+	c #D34242",
"s+	c #D14040",
"t+	c #E38888",
"u+	c #FCF0F0",
"v+	c #FCFBFB",
"w+	c #F5F6F6",
"x+	c #F2F4F4",
"y+	c #E8BCBD",
"z+	c #C13C3C",
"A+	c #C65656",
"B+	c #D8C7C7",
"C+	c #CCCCCC",
"D+	c #D2D4D4",
"E+	c #CEBABA",
"F+	c #8F3A3A",
"G+	c #901212",
"H+	c #A21415",
"I+	c #A01414",
"J+	c #A01313",
"K+	c #9D1A1A",
"L+	c #C99192",
"M+	c #C4C3C3",
"N+	c #B7B6B6",
"O+	c #DFD3D3",
"P+	c #CC6A6A",
"Q+	c #CD5455",
"R+	c #CE3E3E",
"S+	c #CB3C3C",
"T+	c #C83838",
"U+	c #DC7D7D",
"V+	c #F9F1F1",
"W+	c #F5F7F7",
"X+	c #EEEEEE",
"Y+	c #E8E8E8",
"Z+	c #E6E7E7",
"`+	c #E1BFBF",
" @	c #D5C0C0",
".@	c #CDCFCF",
"+@	c #C1C1C1",
"@@	c #CECFCF",
"#@	c #CDBBBB",
"$@	c #862A2A",
"%@	c #8E0B0B",
"&@	c #9D0B0B",
"*@	c #9F0B0B",
"=@	c #9E0B0B",
"-@	c #9C0D0C",
";@	c #B25859",
">@	c #CFCBCA",
",@	c #AFAEAE",
"'@	c #E2C5C5",
")@	c #C96464",
"!@	c #C94848",
"~@	c #CC3E3E",
"{@	c #CC3D3C",
"]@	c #CA3B3B",
"^@	c #C73A3A",
"/@	c #C63839",
"(@	c #C03031",
"_@	c #D78687",
":@	c #ECE6E6",
"<@	c #E8EAEA",
"[@	c #DFDFDF",
"}@	c #D8D8D8",
"|@	c #D1D5D5",
"1@	c #CACDCD",
"2@	c #C4C4C4",
"3@	c #BFBFBF",
"4@	c #CDCDCD",
"5@	c #C9B5B5",
"6@	c #8C3636",
"7@	c #8F0A0A",
"8@	c #9F0A0A",
"9@	c #A20B0B",
"0@	c #A00B0B",
"a@	c #9F0C0C",
"b@	c #A63A3B",
"c@	c #D7C8C8",
"d@	c #A5A5A4",
"e@	c #DEAEAE",
"f@	c #C65B5B",
"g@	c #C64040",
"h@	c #C93B3B",
"i@	c #C93A3A",
"j@	c #C73939",
"k@	c #C33636",
"l@	c #C13636",
"m@	c #C03535",
"n@	c #BB2F2F",
"o@	c #CC7071",
"p@	c #DDD7D7",
"q@	c #D5D7D7",
"r@	c #C9C9C9",
"s@	c #CEBEBE",
"t@	c #8B3232",
"u@	c #8C0C0C",
"v@	c #A00A0A",
"w@	c #A40A0A",
"x@	c #A30B0B",
"y@	c #A10B0B",
"z@	c #A10C0C",
"A@	c #A1292A",
"B@	c #DEC7C8",
"C@	c #A1A0A1",
"D@	c #D49494",
"E@	c #C14E4E",
"F@	c #C43B3B",
"G@	c #C63939",
"H@	c #C33736",
"I@	c #C13534",
"J@	c #BF3434",
"K@	c #BD3131",
"L@	c #B72020",
"M@	c #AF0D0D",
"N@	c #A90A0A",
"O@	c #C77A7B",
"P@	c #CFD3D3",
"Q@	c #C8C9C9",
"R@	c #C3C3C3",
"S@	c #BEBEBE",
"T@	c #C1C2C2",
"U@	c #D7D0D0",
"V@	c #964141",
"W@	c #900A0A",
"X@	c #A20A0A",
"Y@	c #A50A0A",
"Z@	c #A50B0C",
"`@	c #A32324",
" #	c #DFC3C4",
".#	c #A09FA0",
"+#	c #D39595",
"@#	c #BD4949",
"##	c #C03838",
"$#	c #C03434",
"%#	c #BE3434",
"&#	c #BB2D2D",
"*#	c #B31616",
"=#	c #AE0B0B",
"-#	c #AA0A0A",
";#	c #B83838",
">#	c #CCB1B1",
",#	c #C8CACA",
"'#	c #BABABA",
")#	c #B7B7B7",
"!#	c #C0C0C0",
"~#	c #C29292",
"{#	c #A71B1B",
"]#	c #A60A0A",
"^#	c #A80A0A",
"/#	c #AA0B0B",
"(#	c #A52323",
"_#	c #E1C4C5",
":#	c #9F9E9E",
"<#	c #A2A1A1",
"[#	c #D9ACAC",
"}#	c #B94948",
"|#	c #BC3333",
"1#	c #B72727",
"2#	c #B00E0E",
"3#	c #AC0909",
"4#	c #B94646",
"5#	c #CDB6B6",
"6#	c #C6C9C9",
"7#	c #BEC1C1",
"8#	c #B6B8B8",
"9#	c #B2B3B3",
"0#	c #CB9696",
"a#	c #B12727",
"b#	c #AB0A0A",
"c#	c #AD0909",
"d#	c #AE0909",
"e#	c #AF0909",
"f#	c #A72929",
"g#	c #E3CDCC",
"h#	c #A09F9F",
"i#	c #ABAAAA",
"j#	c #DCC1C1",
"k#	c #B54A4A",
"l#	c #B93434",
"m#	c #BA3333",
"n#	c #B62626",
"o#	c #AE0E0F",
"p#	c #B63939",
"q#	c #CCB9B9",
"r#	c #C7CBCB",
"s#	c #CACBCB",
"t#	c #CDBDBD",
"u#	c #B4ACAC",
"v#	c #B3B5B5",
"w#	c #D09D9D",
"x#	c #B21D1D",
"y#	c #B20909",
"z#	c #B30808",
"A#	c #B40808",
"B#	c #B50909",
"C#	c #B30B0B",
"D#	c #B03A3A",
"E#	c #DCCBCA",
"F#	c #DCCFCF",
"G#	c #B04C4C",
"H#	c #B53232",
"I#	c #B42929",
"J#	c #AC0D0D",
"K#	c #A70C0C",
"L#	c #B33939",
"M#	c #C9ADAD",
"N#	c #C6CACA",
"O#	c #CDBCBC",
"P#	c #8D3434",
"Q#	c #A54C4C",
"R#	c #B5B1B1",
"S#	c #B9BABA",
"T#	c #C7C8C8",
"U#	c #D8DCDC",
"V#	c #D69897",
"W#	c #B71D1D",
"X#	c #B70909",
"Y#	c #B80808",
"Z#	c #B90808",
"`#	c #BA0809",
" $	c #B50C0C",
".$	c #C25D5C",
"+$	c #CFC7C7",
"@$	c #D2D1D1",
"#$	c #BD7171",
"$$	c #A92524",
"%$	c #AA0F0E",
"&$	c #A70A0A",
"*$	c #AF2F2F",
"=$	c #CAB1B1",
"-$	c #BCBCBC",
";$	c #C8B3B3",
">$	c #8A3232",
",$	c #910A0A",
"'$	c #B05050",
")$	c #BEB5B5",
"!$	c #C9CCCC",
"~$	c #D3D3D3",
"{$	c #DEDDDD",
"]$	c #EDEDED",
"^$	c #DF9C9C",
"/$	c #BE1717",
"($	c #C00707",
"_$	c #C00A09",
":$	c #B61C1B",
"<$	c #D79191",
"[$	c #B8B4B3",
"}$	c #9E9D9D",
"|$	c #C0BFBF",
"1$	c #D6B0B0",
"2$	c #970F0E",
"3$	c #A30A0A",
"4$	c #AE3B3B",
"5$	c #C8C1C1",
"6$	c #C0C3C3",
"7$	c #BCBBBB",
"8$	c #C9CBCB",
"9$	c #CAB8B8",
"0$	c #8B3636",
"a$	c #AB1010",
"b$	c #B75757",
"c$	c #D0C9C9",
"d$	c #E0E1E1",
"e$	c #E9E8E8",
"f$	c #F6F9F9",
"g$	c #BE1D1D",
"h$	c #C60807",
"i$	c #C70909",
"j$	c #C40D0D",
"k$	c #C03A3A",
"l$	c #DFBBBB",
"m$	c #9F9B9B",
"n$	c #E0D6D6",
"o$	c #A94949",
"p$	c #9B090A",
"q$	c #A10A0A",
"r$	c #9C0F0F",
"s$	c #AD5150",
"t$	c #BCB1B1",
"u$	c #C7CACA",
"v$	c #C8B4B4",
"w$	c #832828",
"x$	c #8C0B0B",
"y$	c #AB0909",
"z$	c #B10B0B",
"A$	c #BF5151",
"B$	c #F7FCFC",
"C$	c #E2C0C0",
"D$	c #AC3434",
"E$	c #B60909",
"F$	c #CD0B0B",
"G$	c #CE0C0C",
"H$	c #BF1313",
"I$	c #CD7171",
"J$	c #D9CBCB",
"K$	c #848383",
"L$	c #C3C2C2",
"M$	c #D1A5A5",
"N$	c #971A1A",
"O$	c #9D0A0A",
"P$	c #9C0B0B",
"Q$	c #9A0C0C",
"R$	c #971010",
"S$	c #A64B4B",
"T$	c #B38C8C",
"U$	c #873334",
"V$	c #890C0C",
"W$	c #B10909",
"X$	c #B50808",
"Y$	c #B80C0C",
"Z$	c #CB5D5D",
"`$	c #D9A0A0",
" %	c #AF3232",
".%	c #B60808",
"+%	c #D30D0D",
"@%	c #D20F0F",
"#%	c #B92A2A",
"$%	c #E3ACAC",
"%%	c #A7A0A0",
"&%	c #959595",
"*%	c #F2F2F2",
"=%	c #B4B3B3",
"-%	c #DAD4D4",
";%	c #B56B6B",
">%	c #930B0B",
",%	c #980C0B",
"'%	c #970C0C",
")%	c #950C0C",
"!%	c #960F0F",
"~%	c #901818",
"{%	c #880C0C",
"]%	c #9A0B0B",
"^%	c #B30909",
"/%	c #BE0707",
"(%	c #C20C0C",
"_%	c #C11414",
":%	c #BB0A0A",
"<%	c #D20C0C",
"[%	c #D60D0D",
"}%	c #D71010",
"|%	c #C01515",
"1%	c #D57777",
"2%	c #CFBDBD",
"3%	c #908E8E",
"4%	c #AFAFAF",
"5%	c #E3DADA",
"6%	c #A14343",
"7%	c #8F0B0B",
"8%	c #940C0C",
"9%	c #980C0C",
"0%	c #B00909",
"a%	c #BB0808",
"b%	c #C10808",
"c%	c #C80A0A",
"d%	c #CE0B0B",
"e%	c #D40D0D",
"f%	c #D80E0E",
"g%	c #DA1010",
"h%	c #C51515",
"i%	c #C84E4D",
"j%	c #E5CECE",
"k%	c #9F9999",
"l%	c #E4CDCD",
"m%	c #A04242",
"n%	c #8D0D0D",
"o%	c #930D0D",
"p%	c #990B0B",
"q%	c #C50909",
"r%	c #CC0C0C",
"s%	c #D70E0E",
"t%	c #DB1010",
"u%	c #C61616",
"v%	c #C54B4B",
"w%	c #F1CACA",
"x%	c #AEA8A8",
"y%	c #E1D6D6",
"z%	c #B26868",
"A%	c #901D1D",
"B%	c #900D0D",
"C%	c #B40909",
"D%	c #C10809",
"E%	c #C90B0C",
"F%	c #D00E0D",
"G%	c #D40F0F",
"H%	c #CD1313",
"I%	c #BE2525",
"J%	c #D06C6C",
"K%	c #E6CBCB",
"L%	c #B0A6A6",
"M%	c #ACACAC",
"N%	c #D4CBCB",
"O%	c #CFA2A2",
"P%	c #B05F5F",
"Q%	c #962121",
"R%	c #970F0F",
"S%	c #9E0D0D",
"T%	c #A40C0C",
"U%	c #A90B0B",
"V%	c #AF0B0B",
"W%	c #B60A0A",
"X%	c #BD0A0A",
"Y%	c #C40C0C",
"Z%	c #CA0E0E",
"`%	c #C51212",
" &	c #B61515",
".&	c #C34949",
"+&	c #DF9D9D",
"@&	c #D7BDBD",
"#&	c #A49B9B",
"$&	c #BDBABA",
"%&	c #DFD5D5",
"&&	c #D7B7B7",
"*&	c #C58888",
"=&	c #A03E3E",
"-&	c #9B2525",
";&	c #A52121",
">&	c #B01D1D",
",&	c #B61E1D",
"'&	c #B32121",
")&	c #AD2626",
"!&	c #AA3131",
"~&	c #CB7273",
"{&	c #DEA6A6",
"]&	c #DEC4C4",
"^&	c #B8A7A7",
"/&	c #908A8A",
"(&	c #939292",
"_&	c #B3B1B1",
":&	c #C8C2C2",
"<&	c #D8CCCC",
"[&	c #DDC8C8",
"}&	c #DBBCBC",
"|&	c #D8B4B4",
"1&	c #DAB5B5",
"2&	c #DCBBBB",
"3&	c #DDC2C2",
"4&	c #CABABA",
"5&	c #AEA2A2",
"6&	c #8F8181",
"7&	c #9C9B9B",
"8&	c #9B9A9A",
"9&	c #979696",
"0&	c #918A8A",
"                    . + @ # $ % % $ # @ + .                     ",
"                    & * = - ; > , ' ) ! ~ { ] & ^               ",
"              / ( _ : < [ } | 1 2 3 4 5 6 7 8 9 0               ",
"            a b c d e f g h i j k l m n o p q r s t             ",
"          + u v w x y z A B C D E F G H I J K L M N O           ",
"        P Q < R S T U V W X Y Z `  ...+.@.#.$.%.&.*.=.-.        ",
"    ;.>._ ,.'.).A !.~.{.].^./.(._.:.<.[.}.|.1.2.3.4.5.6.7.      ",
"    8.9.0.a.b.c.d.e.f.g.h.i._.j.k.l.m.n.2 o.p.q.r.s.t.u.v./     ",
"  w.x.y.z.A.B.C.D.E.F.G.H.I.J.K.L.M.N.O.P.Q.R.S.T.U.V.W.X.Y.    ",
"  7.Z.`. +.+++@+#+$+%+&+*+=+-+L.;+>+,+'+)+!+~+{+]+^+/+(+_+:+<+  ",
"[+& }+|+1+2+3+4+5+%+%+%+6+7+8+9+0+a+b+c+d+e+f+g+h+i+j+k+l+m+a   ",
"+ * n+o+p+q+r+s+t+u+$+v+w+x+y+z+A+B+c+C+P D+E+F+G+H+I+J+K+L+M+  ",
"N+O+P+Q+J.s+R+S+T+U+V+W+X+Y+Z+`+ @.@O +@@@#@$@%@&@*@*@=@-@;@>@,@",
"# '@)@!@~@{@]@^@/@(@_@:@<@[@}@|@1@2@3@4@5@6@7@8@9@0@0@*@a@b@c@d@",
"$ e@f@g@h@i@j@k@l@m@n@o@p@q@!+r@2@3@4@s@t@u@v@w@w@x@y@y@z@A@B@C@",
"% D@E@F@G@H@I@J@K@L@M@N@O@P@Q@R@S@T@U@V@W@X@Y@Y@Y@Y@Y@Y@Z@`@ #.#",
"% +#@###l@$#%#&#*#=#-#;#>#,#R@S@'#)#!#~#{#]#^#^#N@-#-#-#/#(#_#:#",
"<#[#}#r.%#|#1#2#3#/#4#5#6#{ S@7#8#0 9#7#0#a#b#3#c#d#e#e#=#f#g#h#",
"i#j#k#l#m#n#o#-#^#p#q#r#+@[+s#t#u#v#t ] ,#w#x#e#y#z#A#B#C#D#E#$ ",
"N+F#G#H#I#J#N@K#L#M#N#+@[+s#O#P#Q#R#S#3@T#U#V#W#X#Y#Z#`# $.$+$:#",
"+ @$#$$$%$&$Y@*$=$6#!#-$s#;$>$,$X@'$)$!$~${$]$^$/$($($_$:$<$[$}$",
"|$!#1$2$3$w@y@4$5$6$7$8$9$0$u@X@^#a$b$c$d$e$f$7 g$h$i$j$k$l$m$  ",
"  ] n$o$p$q$*@r$s$t$u$v$w$x$0@&$y$d#z$A$b B$C$D$E$F$G$H$I$J$K$  ",
"  O L$M$N$O$P$Q$R$S$T$U$V$P$w@^#y$W$X$Y$Z$`$ %.%G$+%@%#%$%%%&%  ",
"  *%=%-%;%>%,%'%)%!%~%{%]%y@w@-#d#^%Z#/%(%_%:%<%[%}%|%1%2%3%    ",
"      4%5%6%7%8%8%)%9%]%=@y@]#b#0%.%a%b%c%d%e%f%g%h%i%j%k%      ",
"        S@l%m%n%o%8%'%p%=@9@&$c#y#Z#/%q%r%<%s%t%u%v%w%x%        ",
"          -$y%z%A%B%'%Q$=@9@^#d#C%a%D%E%F%G%H%I%J%K%L%          ",
"            M%N%O%P%Q%R%S%T%U%V%W%X%Y%Z%`% &.&+&@&#&            ",
"              <#$&%&&&*&=&-&;&>&,&'&)&!&~&{&]&^&/&              ",
"                  (&_&:&<&[&}&|&1&2&3&P.4&5&6&                  ",
"                        }$}$% 7&7&% 8&9&0&                      "};
