/* XPM */
static char * about_browser_16_xpm[] = {
"16 16 128 2",
"  	c None",
". 	c #7EA4C6",
"+ 	c #8CAED0",
"@ 	c #99B8D7",
"# 	c #9DBAD9",
"$ 	c #91B2D3",
"% 	c #87AACC",
"& 	c #739CC4",
"* 	c #95B5DC",
"= 	c #84A9D5",
"- 	c #83A9D5",
"; 	c #85AAD5",
"> 	c #95B4DB",
", 	c #79A2C9",
"' 	c #6E98C4",
") 	c #7AA2D1",
"! 	c #79A1D0",
"~ 	c #78A1D0",
"{ 	c #98B7DB",
"] 	c #769FC9",
"^ 	c #3269A0",
"/ 	c #6F9BCC",
"( 	c #6D99CB",
"_ 	c #6492C6",
": 	c #FFFFFF",
"< 	c #6E9ACB",
"[ 	c #4176AA",
"} 	c #003976",
"| 	c #6493C7",
"1 	c #5F8FC5",
"2 	c #5B8CC3",
"3 	c #A5BEDA",
"4 	c #A5BDD9",
"5 	c #6C99CA",
"6 	c #004080",
"7 	c #1A518D",
"8 	c #5589C0",
"9 	c #5387BF",
"0 	c #4D82BC",
"a 	c #AFC7E1",
"b 	c #A9C2DE",
"c 	c #AEC6E0",
"d 	c #4D81BB",
"e 	c #5387BE",
"f 	c #2B619A",
"g 	c #1E5690",
"h 	c #477EB9",
"i 	c #477EB8",
"j 	c #3F7AB7",
"k 	c #A0BCDB",
"l 	c #3875B6",
"m 	c #4780BC",
"n 	c #467EB9",
"o 	c #467DB8",
"p 	c #4C81BB",
"q 	c #296098",
"r 	c #18528E",
"s 	c #3E77B4",
"t 	c #3C76B4",
"u 	c #3C79B8",
"v 	c #3B7BBD",
"w 	c #2B70B7",
"x 	c #3577BA",
"y 	c #4583C2",
"z 	c #3978B9",
"A 	c #2467AA",
"B 	c #0D559D",
"C 	c #003F83",
"D 	c #003E80",
"E 	c #004A96",
"F 	c #0352A0",
"G 	c #075AAB",
"H 	c #0E64B6",
"I 	c #025DB2",
"J 	c #FFFBF6",
"K 	c #FFFAF4",
"L 	c #0051AE",
"M 	c #005BB3",
"N 	c #0057AC",
"O 	c #0053A4",
"P 	c #004D9A",
"Q 	c #003F81",
"R 	c #003771",
"S 	c #0051A1",
"T 	c #0054A6",
"U 	c #005BB1",
"V 	c #0062BA",
"W 	c #0059B8",
"X 	c #FCF7F1",
"Y 	c #005AB9",
"Z 	c #0064BF",
"` 	c #005EB6",
" .	c #0058AB",
"..	c #00458A",
"+.	c #0058AC",
"@.	c #005FB7",
"#.	c #005FBC",
"$.	c #77A5D1",
"%.	c #F5F2EF",
"&.	c #77A4D0",
"*.	c #0061C0",
"=.	c #0063BC",
"-.	c #005CB2",
";.	c #00468B",
">.	c #004F9B",
",.	c #0063BD",
"'.	c #0062C1",
").	c #7EAEDA",
"!.	c #77ADDD",
"~.	c #77ADDE",
"{.	c #7EAFDB",
"].	c #0065C6",
"^.	c #0068C3",
"/.	c #0048A9",
"(.	c #004A93",
"_.	c #0068C5",
":.	c #0073D7",
"<.	c #007BE3",
"[.	c #007EE8",
"}.	c #0077DE",
"|.	c #0060D4",
"1.	c #004D93",
"2.	c #023A74",
"3.	c #044F94",
"4.	c #01529A",
"5.	c #00539B",
"6.	c #035096",
"7.	c #033C72",
"                                ",
"          . + @ # $ %           ",
"        & * = = - ; > ,         ",
"      ' ) ! ~ { { ~ ! ) ]       ",
"    ^ / ( ( _ : : _ ( ( < [     ",
"  } | 1 1 1 2 3 4 2 1 1 1 5 6   ",
"  7 8 9 9 0 a b c d e 9 9 9 f   ",
"  g h h i j k : : l m n o p q   ",
"  r s t u v w : : x y z A B C   ",
"  D E F G H I J K L M N O P Q   ",
"  R S T U V W X X Y Z `  .T R   ",
"    ..+.@.#.$.%.%.&.*.=.-.;.    ",
"      >.,.'.).!.~.{.].^./.      ",
"        (._.:.<.[.}.|.1.        ",
"          2.3.4.5.6.7.          ",
"                                "};
