/* XPM */
static char * error_16_xpm[] = {
"16 16 203 2",
"  	c None",
". 	c #C7C7C7",
"+ 	c #C9BFBF",
"@ 	c #C0A2A2",
"# 	c #BFA1A1",
"$ 	c #C9BDBD",
"% 	c #C7C6C6",
"& 	c #C3C3C3",
"* 	c #C3BFBF",
"= 	c #E3C1C1",
"- 	c #E19393",
"; 	c #DA6E6E",
"> 	c #D65E5E",
", 	c #D15353",
"' 	c #CA4F4F",
") 	c #CC6D6D",
"! 	c #D6B1B1",
"~ 	c #C3C0C0",
"{ 	c #D8CFCF",
"] 	c #E4A7A7",
"^ 	c #DF7171",
"/ 	c #DF5454",
"( 	c #DE4C4D",
"_ 	c #DC4B4B",
": 	c #D84948",
"< 	c #D34646",
"[ 	c #CB4141",
"} 	c #C03E3E",
"| 	c #CB8483",
"1 	c #D4CDCD",
"2 	c #C7C4C4",
"3 	c #E2A4A4",
"4 	c #DC6161",
"5 	c #E15353",
"6 	c #E35F60",
"7 	c #D94747",
"8 	c #D54545",
"9 	c #D04242",
"0 	c #CB3F3F",
"a 	c #CE5757",
"b 	c #C23C3C",
"c 	c #B93636",
"d 	c #C98787",
"e 	c #BEBCBC",
"f 	c #DEBEBE",
"g 	c #D96A6A",
"h 	c #DD4F4F",
"i 	c #F8CCCC",
"j 	c #FCEDED",
"k 	c #D96363",
"l 	c #CB3E3E",
"m 	c #C63A3A",
"n 	c #CD6C6D",
"o 	c #D6D3D3",
"p 	c #D09797",
"q 	c #B33131",
"r 	c #AC3030",
"s 	c #CDB1B1",
"t 	c #D88686",
"u 	c #D44949",
"v 	c #D74C4C",
"w 	c #F7D9D9",
"x 	c #FEFEFE",
"y 	c #F5EAEA",
"z 	c #CD5E5F",
"A 	c #CA6D6D",
"B 	c #D3D0D0",
"C 	c #CCCCCC",
"D 	c #BF9F9F",
"E 	c #9F2021",
"F 	c #A31C1C",
"G 	c #BA6B6B",
"H 	c #B4B3B4",
"I 	c #C8BEBE",
"J 	c #CB5B5B",
"K 	c #CE3F3F",
"L 	c #CB3C3C",
"M 	c #CA4748",
"N 	c #EDD5D5",
"O 	c #E7E8E8",
"P 	c #DCD5D5",
"Q 	c #CCC8C8",
"R 	c #C5C5C5",
"S 	c #BC9D9D",
"T 	c #911212",
"U 	c #A00B0B",
"V 	c #9F0B0B",
"W 	c #A52B2B",
"X 	c #BFBAB9",
"Y 	c #BC9F9F",
"Z 	c #C44949",
"` 	c #C73939",
" .	c #C33636",
"..	c #BD2F2F",
"+.	c #B82D2D",
"@.	c #D2BFBF",
"#.	c #C9C9C9",
"$.	c #C1C1C1",
"%.	c #C2A7A7",
"&.	c #921515",
"*.	c #A40A0A",
"=.	c #A30B0B",
"-.	c #A31919",
";.	c #C0B2B3",
">.	c #BA9F9F",
",.	c #BD4040",
"'.	c #BF3434",
").	c #B82525",
"!.	c #AD0D0D",
"~.	c #BA5050",
"{.	c #C7C1C1",
"].	c #BFC0C0",
"^.	c #B7B7B7",
"/.	c #BDB1B1",
"(.	c #B23939",
"_.	c #AA0A0A",
":.	c #AB0A0A",
"<.	c #AC0A0A",
"[.	c #A91919",
"}.	c #C1B4B4",
"|.	c #C6BCBC",
"1.	c #B53F3F",
"2.	c #B42424",
"3.	c #AA0B0C",
"4.	c #B64A4A",
"5.	c #C6C4C4",
"6.	c #BC9E9E",
"7.	c #B09797",
"8.	c #B9B9B9",
"9.	c #CEC3C3",
"0.	c #BC3737",
"a.	c #B50909",
"b.	c #B70809",
"c.	c #B72B2B",
"d.	c #BBB4B4",
"e.	c #B55555",
"f.	c #A60B0B",
"g.	c #A92020",
"h.	c #C6BFBF",
"i.	c #C0C0C0",
"j.	c #BA9B9B",
"k.	c #921414",
"l.	c #A91D1D",
"m.	c #C4A8A8",
"n.	c #DEDEDE",
"o.	c #E9CFCF",
"p.	c #C01110",
"q.	c #C30A09",
"r.	c #CB6868",
"s.	c #A5A2A2",
"t.	c #C8A2A1",
"u.	c #9C0E0E",
"v.	c #9C0C0C",
"w.	c #AA5757",
"x.	c #B28F8F",
"y.	c #8D1212",
"z.	c #A50A0A",
"A.	c #AD0909",
"B.	c #B81C1C",
"C.	c #E0B5B5",
"D.	c #BD4C4C",
"E.	c #C90B0B",
"F.	c #C61616",
"G.	c #CCA2A2",
"H.	c #BFBDBD",
"I.	c #B36565",
"J.	c #950C0C",
"K.	c #950D0D",
"L.	c #920F0F",
"M.	c #A80A0A",
"N.	c #B20909",
"O.	c #BD0808",
"P.	c #C60D0D",
"Q.	c #CE0C0C",
"R.	c #D31011",
"S.	c #D06A6A",
"T.	c #ABA2A2",
"U.	c #CCC2C2",
"V.	c #B06363",
"W.	c #921111",
"X.	c #980C0C",
"Y.	c #B60808",
"Z.	c #C30909",
"`.	c #D00D0D",
" +	c #D01515",
".+	c #D06666",
"++	c #C7B4B4",
"@+	c #B7B3B3",
"#+	c #C7A4A4",
"$+	c #B25C5C",
"%+	c #9F1F1F",
"&+	c #AB1515",
"*+	c #B71515",
"=+	c #B91C1C",
"-+	c #C95050",
";+	c #CE9494",
">+	c #B0A2A2",
",+	c #B2AFAF",
"'+	c #BDB4B4",
")+	c #BBAAAA",
"!+	c #BCAAAA",
"~+	c #BBAEAE",
"{+	c #ACA1A1",
"          . + @ # $ % &         ",
"      * = - ; > , ' ) ! ~       ",
"    { ] ^ / ( _ : < [ } | 1     ",
"  2 3 4 5 6 7 8 9 0 a b c d e   ",
"  f g h i j k l m n o p q r s   ",
". t u v w x y z A B C D E F G H ",
"I J K L M N O P Q R S T U V W X ",
"Y Z `  ...+.@.#.$.%.&.*.*.=.-.;.",
">.,.'.).!.~.{.].^./.(._.:.<.[.}.",
"|.1.2.3.4.5.$.6.7.8.9.0.a.b.c.d.",
"% e.f.g.h.i.j.k.l.m.n.o.p.q.r.s.",
"R t.u.v.w.x.y.z.A.B.C.D.E.F.G.  ",
"  H.I.J.K.L.V M.N.O.P.Q.R.S.T.  ",
"    U.V.W.X.U _.Y.Z.`. +.+++    ",
"      @+#+$+%+&+*+=+-+;+>+      ",
"          ,+'+)+!+~+{+          "};
