/* XPM */
static char * settings_xpm[] = {
"16 16 106 2",
"  	c #8BAAEA",
". 	c #86A6EA",
"+ 	c #7FA1E9",
"@ 	c #769BE8",
"# 	c #6C94E7",
"$ 	c #628EE6",
"% 	c #5887E5",
"& 	c #4E81E4",
"* 	c #467BE4",
"= 	c #3E76E3",
"- 	c #3972E2",
"; 	c #F1F1F1",
"> 	c #A2C2FF",
", 	c #9FC0FE",
"' 	c #9ABDFD",
") 	c #96B9FC",
"! 	c #90B5FB",
"~ 	c #8BB0FA",
"{ 	c #84ABF9",
"] 	c #7DA7F8",
"^ 	c #77A2F6",
"/ 	c #719DF5",
"( 	c #6A99F5",
"_ 	c #6595F3",
": 	c #3165CD",
"< 	c #84A5E9",
"[ 	c #7A9FE9",
"} 	c #6E97E7",
"| 	c #5686E5",
"1 	c #4A7DE3",
"2 	c #4076E3",
"3 	c #2F62C8",
"4 	c #A7B6CC",
"5 	c #FFFFFF",
"6 	c #FEFFFF",
"7 	c #FCFCFE",
"8 	c #F9FAFE",
"9 	c #F5F7FD",
"0 	c #F1F4FB",
"a 	c #EDF1FB",
"b 	c #E8EEFA",
"c 	c #E3EAF9",
"d 	c #354963",
"e 	c #A3B2C8",
"f 	c #FEFEFE",
"g 	c #FCFDFE",
"h 	c #F9FBFD",
"i 	c #F5F8FD",
"j 	c #F1F5FC",
"k 	c #EDF2FB",
"l 	c #E9EEFA",
"m 	c #E4EAF9",
"n 	c #B6C1D1",
"o 	c #9EAEC3",
"p 	c #FDFDFF",
"q 	c #FAFBFE",
"r 	c #F7F9FD",
"s 	c #F2F5FC",
"t 	c #EEF2FB",
"u 	c #E9EFFA",
"v 	c #E5EBF9",
"w 	c #E1E8F8",
"x 	c #9AA9BE",
"y 	c #FDFEFF",
"z 	c #FAFCFE",
"A 	c #F7F8FD",
"B 	c #F3F6FC",
"C 	c #EFF3FB",
"D 	c #EBEFFB",
"E 	c #E6ECF9",
"F 	c #DCE5F7",
"G 	c #96A5BA",
"H 	c #FEFEFF",
"I 	c #A6B5CB",
"J 	c #A4B4CA",
"K 	c #9FAEC3",
"L 	c #9CABC1",
"M 	c #9BA8BE",
"N 	c #98A6BC",
"O 	c #96A4BA",
"P 	c #95A3B9",
"Q 	c #77869C",
"R 	c #93A2B7",
"S 	c #FBFDFE",
"T 	c #FDFDFE",
"U 	c #F6F9FD",
"V 	c #EAF0FA",
"W 	c #A5B3C9",
"X 	c #A1B0C5",
"Y 	c #F6F8FD",
"Z 	c #A2B1C7",
"` 	c #FCFDFF",
" .	c #F9FBFE",
"..	c #D8DCE1",
"+.	c #A0B0C5",
"@.	c #EBECF7",
"#.	c #333D4B",
"$.	c #778397",
"%.	c #EAF0FB",
"&.	c #E6ECFA",
"*.	c #E1E9F9",
"=.	c #D7E1F6",
"-.	c #EFF3FC",
";.	c #D2DDF5",
">.	c #D2DDF4",
",.	c #CDDAF4",
"        . + @ # $ % & * = - ; ; ",
"  > , ' ) ! ~ { ] ^ / ( _ : ; ; ",
"      < [ } $ | 1 2 - - - 3 ; ; ",
"4 5 5 5 5 6 7 8 9 0 a b c d ; ; ",
"e 5 5 5 f g h i j k l m n d ; ; ",
"o 5 5 5 p q r s t u v w n d ; ; ",
"x 5 5 y z A B C D E w F n d ; ; ",
"G 5 H I I J e K L M N O P Q ; ; ",
"R H S I 5 5 T U B C V E w d ; ; ",
"R 7 8 W 5 I I e X K L M N O P Q ",
"R h Y Z ` I 5 T  .U B C V E w d ",
"R Y ..+.@.W 5 #.A $.$.$.$.$.F d ",
"R d d o r Z ` r B C %.&.*.F =.d ",
"; ; ; Q d +.@.#.-.$.$.$.$.$.;.d ",
"; ; ; ; ; o r C %.E w F =.>.,.d ",
"; ; ; ; ; Q d d d d d d d d d d "};
