/* XPM */
static char * warning_32_xpm[] = {
"32 32 479 2",
"  	c None",
". 	c #E8E9E9",
"+ 	c #C4C4C5",
"@ 	c #BEBEBE",
"# 	c #BFBFC0",
"$ 	c #BCBCC0",
"% 	c #BBBBBE",
"& 	c #ABABAB",
"* 	c #CDCDCD",
"= 	c #B9B9BC",
"- 	c #BCBB93",
"; 	c #C1C097",
"> 	c #B3B3B7",
", 	c #B3B3B4",
"' 	c #B3B3B3",
") 	c #B1B1B6",
"! 	c #D9D738",
"~ 	c #E0DD35",
"{ 	c #B4B4B6",
"] 	c #A8A8A9",
"^ 	c #B5B5B5",
"/ 	c #B9BABD",
"( 	c #BCBB80",
"_ 	c #FBF708",
": 	c #FCF705",
"< 	c #C4C27D",
"[ 	c #B8B9BD",
"} 	c #ACACAD",
"| 	c #D4D4D4",
"1 	c #BABABB",
"2 	c #BBBBAA",
"3 	c #E4E133",
"4 	c #FCF704",
"5 	c #FBF506",
"6 	c #E6DF2A",
"7 	c #C4C3B3",
"8 	c #AFAFB1",
"9 	c #BFBFBF",
"0 	c #C3C3C6",
"a 	c #C7C465",
"b 	c #F9F30C",
"c 	c #FAF40A",
"d 	c #FAF30C",
"e 	c #F7EE12",
"f 	c #CDC769",
"g 	c #C3C4C7",
"h 	c #A9A9A9",
"i 	c #CECECE",
"j 	c #BDBDC0",
"k 	c #BCBBA7",
"l 	c #ECE624",
"m 	c #F4ED0B",
"n 	c #F3EC0D",
"o 	c #F5ED0E",
"p 	c #E6DA21",
"q 	c #CCCAB3",
"r 	c #B7B7BA",
"s 	c #B1B1B1",
"t 	c #B7B7B7",
"u 	c #C7C7C5",
"v 	c #D8D35C",
"w 	c #D7D121",
"x 	c #86844B",
"y 	c #7A794D",
"z 	c #7A784C",
"A 	c #8C8A4F",
"B 	c #DACD24",
"C 	c #DBD061",
"D 	c #C5C4C4",
"E 	c #ABABAC",
"F 	c #B6B6B6",
"G 	c #CCCCCF",
"H 	c #C9C691",
"I 	c #F5EC21",
"J 	c #C2BD31",
"K 	c #777777",
"L 	c #79797A",
"M 	c #767678",
"N 	c #78776F",
"O 	c #C5B82F",
"P 	c #EDDA30",
"Q 	c #CFC89B",
"R 	c #C3C3C5",
"S 	c #B2B2B3",
"T 	c #E3E3E3",
"U 	c #C2C2C2",
"V 	c #D2D2CD",
"W 	c #E0D94A",
"X 	c #FBF017",
"Y 	c #C5BE30",
"Z 	c #757572",
"` 	c #737373",
" .	c #707070",
"..	c #727166",
"+.	c #C7B82F",
"@.	c #F4DE28",
"#.	c #D4C14F",
"$.	c #DCDAD9",
"%.	c #C0C0C0",
"&.	c #BBBBBB",
"*.	c #D9D9DD",
"=.	c #D0CA8C",
"-.	c #F9EC1E",
";.	c #FAEC1F",
">.	c #C7BF2F",
",.	c #6F6E69",
"'.	c #696969",
").	c #646464",
"!.	c #656558",
"~.	c #CBB82E",
"{.	c #F3DA2A",
"].	c #EED326",
"^.	c #CBBF8D",
"/.	c #D7D8DB",
"(.	c #C5C5C7",
"_.	c #D7D6C9",
":.	c #E9DE48",
"<.	c #F8E920",
"[.	c #F8E925",
"}.	c #C8BF2C",
"|.	c #686760",
"1.	c #5E5E5E",
"2.	c #585859",
"3.	c #5B5A4D",
"4.	c #CBB72C",
"5.	c #F0D628",
"6.	c #EFD223",
"7.	c #D8BE40",
"8.	c #DEDAD0",
"9.	c #B8B9BA",
"0.	c #A8A8A8",
"a.	c #DEDEDD",
"b.	c #DAD26F",
"c.	c #F7E827",
"d.	c #F7E629",
"e.	c #F7E52A",
"f.	c #C8BF29",
"g.	c #5F5E54",
"h.	c #4E4E4E",
"i.	c #4B4B4B",
"j.	c #595645",
"k.	c #CBB527",
"l.	c #EED023",
"m.	c #EDCE20",
"n.	c #E7C61A",
"o.	c #D0BC6F",
"p.	c #E1E1E2",
"q.	c #AEAEAF",
"r.	c #CECED0",
"s.	c #CECBB2",
"t.	c #EFE03B",
"u.	c #F7E528",
"v.	c #F5E22B",
"w.	c #F6E12A",
"x.	c #C9BC26",
"y.	c #555348",
"z.	c #434343",
"A.	c #474747",
"B.	c #5E5A45",
"C.	c #CFB524",
"D.	c #EECD1D",
"E.	c #ECC91A",
"F.	c #EBC615",
"G.	c #DBB720",
"H.	c #D2CAB4",
"I.	c #C4C4C7",
"J.	c #E1E1E1",
"K.	c #BEBEBF",
"L.	c #D7D6D4",
"M.	c #DED25F",
"N.	c #F7E428",
"O.	c #F5E12C",
"P.	c #F3DD2C",
"Q.	c #F3DB2B",
"R.	c #C7B327",
"S.	c #464336",
"T.	c #373737",
"U.	c #404141",
"V.	c #615B43",
"W.	c #CFB11B",
"X.	c #ECC615",
"Y.	c #EAC312",
"Z.	c #E9C00E",
"`.	c #E8BC07",
" +	c #CAAB49",
".+	c #DBDADA",
"++	c #B0B0B1",
"@+	c #D2D2D4",
"#+	c #D0CA98",
"$+	c #F1DF34",
"%+	c #F4DF29",
"&+	c #F1D926",
"*+	c #EED320",
"=+	c #EDD01B",
"-+	c #C2A817",
";+	c #2C2812",
">+	c #111111",
",+	c #262627",
"'+	c #565035",
")+	c #CAA40D",
"!+	c #E6BB06",
"~+	c #E6BA05",
"{+	c #E6B705",
"]+	c #E6B504",
"^+	c #DCAC0F",
"/+	c #CCBE9B",
"(+	c #C7C8CB",
"_+	c #BFBFC1",
":+	c #C6C4B8",
"<+	c #DECB42",
"[+	c #EED214",
"}+	c #EBCC10",
"|+	c #E8C80D",
"1+	c #E7C50D",
"2+	c #E7C30C",
"3+	c #C4A60F",
"4+	c #2A2407",
"5+	c #121212",
"6+	c #2E2E30",
"7+	c #686040",
"8+	c #CDA309",
"9+	c #E6B602",
"0+	c #E5B302",
"a+	c #E5B101",
"b+	c #E5B002",
"c+	c #E3AD02",
"d+	c #C9A031",
"e+	c #D2CEC7",
"f+	c #AFB0B1",
"g+	c #BCBCBC",
"h+	c #C7C8CD",
"i+	c #C6BB72",
"j+	c #EBCD0F",
"k+	c #E9C80B",
"l+	c #E8C60D",
"m+	c #E7C40D",
"n+	c #E6C20C",
"o+	c #E6C10B",
"p+	c #CBAA0D",
"q+	c #2F2707",
"r+	c #171718",
"s+	c #363639",
"t+	c #756C4A",
"u+	c #CFA307",
"v+	c #E5B301",
"w+	c #E4AF01",
"x+	c #E4AD02",
"y+	c #E3AC03",
"z+	c #DAA306",
"A+	c #C1AC7D",
"B+	c #C8CACE",
"C+	c #C3C3C3",
"D+	c #BEBEC0",
"E+	c #BEBAA6",
"F+	c #DFC426",
"G+	c #E9C70A",
"H+	c #E6C30D",
"I+	c #E6C10C",
"J+	c #E6C00A",
"K+	c #E6BE08",
"L+	c #D9B108",
"M+	c #604E0E",
"N+	c #4B4221",
"O+	c #63593A",
"P+	c #8B7834",
"Q+	c #D5A603",
"R+	c #E5B001",
"S+	c #E4AE01",
"T+	c #E3AB03",
"U+	c #E2A905",
"V+	c #E2A805",
"W+	c #D19F1F",
"X+	c #C1BAB0",
"Y+	c #B3B4B6",
"Z+	c #AFAFAF",
"`+	c #C0C0BD",
" @	c #CAB854",
".@	c #E6BE0A",
"+@	c #E6BD08",
"@@	c #E6B704",
"#@	c #E1B203",
"$@	c #CEA105",
"%@	c #CFA104",
"&@	c #E2AF02",
"*@	c #E4AE02",
"=@	c #E3AB02",
"-@	c #E2AA04",
";@	c #E1A706",
">@	c #E0A508",
",@	c #DDA108",
"'@	c #BFA05A",
")@	c #A9A9AA",
"!@	c #C8C8C8",
"~@	c #B7AE82",
"{@	c #E3C219",
"]@	c #E7C20C",
"^@	c #E6C00C",
"/@	c #E6BF0B",
"(@	c #E6BD09",
"_@	c #E5BB07",
":@	c #E5B906",
"<@	c #E5B704",
"[@	c #E4B502",
"}@	c #A38209",
"|@	c #413A22",
"1@	c #564F36",
"2@	c #B38F16",
"3@	c #E2AD02",
"4@	c #E3AA02",
"5@	c #E2A904",
"6@	c #E2A806",
"7@	c #E1A607",
"8@	c #E0A409",
"9@	c #CF9A18",
"0@	c #BDB19A",
"a@	c #B5B5B8",
"b@	c #B1B1B2",
"c@	c #B3B2B0",
"d@	c #D1B83C",
"e@	c #E9C30F",
"f@	c #E7C110",
"g@	c #E6BF10",
"h@	c #E6BD0E",
"i@	c #E6BB0D",
"j@	c #E6BA0B",
"k@	c #E6B709",
"l@	c #E6B708",
"m@	c #CCA408",
"n@	c #372D0E",
"o@	c #1E1F21",
"p@	c #414244",
"q@	c #766B4A",
"r@	c #D2A10D",
"s@	c #E3AB09",
"t@	c #E2AA0B",
"u@	c #E1A80D",
"v@	c #E1A70E",
"w@	c #E1A60F",
"x@	c #E1A70F",
"y@	c #E1A50B",
"z@	c #BB953D",
"A@	c #BFBEC0",
"B@	c #A6A6A8",
"C@	c #B9B9BA",
"D@	c #B7AC71",
"E@	c #E8C724",
"F@	c #EAC622",
"G@	c #EAC422",
"H@	c #E9C321",
"I@	c #E9C120",
"J@	c #E8C01E",
"K@	c #E9BE1D",
"L@	c #E9BC1B",
"M@	c #EABB19",
"N@	c #D4AC14",
"O@	c #493E19",
"P@	c #545657",
"Q@	c #837855",
"R@	c #D4A61F",
"S@	c #E5B21F",
"T@	c #E4B020",
"U@	c #E4AF21",
"V@	c #E3AF22",
"W@	c #E4AF20",
"X@	c #DBA81F",
"Y@	c #B5A482",
"Z@	c #B5B5B7",
"`@	c #A1A1A1",
" #	c #CFCFCF",
".#	c #B6B6B7",
"+#	c #B1AD9D",
"@#	c #D9C14B",
"##	c #EFD141",
"$#	c #EECF41",
"%#	c #EECD41",
"&#	c #EECC40",
"*#	c #EECB40",
"=#	c #EECA3F",
"-#	c #EFC93E",
";#	c #EFC83D",
">#	c #EEC83D",
",#	c #F0C73D",
"'#	c #C1A13A",
")#	c #6E6341",
"!#	c #807655",
"~#	c #BB9D43",
"{#	c #E7BC3E",
"]#	c #EBBF41",
"^#	c #EABE42",
"/#	c #E9BE43",
"(#	c #EBBE41",
"_#	c #EBBF3F",
":#	c #C6A651",
"<#	c #BAB5AE",
"[#	c #C1C0C1",
"}#	c #B9B9BE",
"|#	c #C0B47F",
"1#	c #E7CC58",
"2#	c #E9CD5A",
"3#	c #E9CC5A",
"4#	c #E8CB5A",
"5#	c #E9CA59",
"6#	c #E9C95A",
"7#	c #EAC95A",
"8#	c #EAC959",
"9#	c #EAC759",
"0#	c #EAC659",
"a#	c #DBB956",
"b#	c #D7B555",
"c#	c #E4BF58",
"d#	c #E7C25B",
"e#	c #E7C15C",
"f#	c #E6C15C",
"g#	c #E6C05C",
"h#	c #E5C15C",
"i#	c #E6C15B",
"j#	c #E7C25A",
"k#	c #E8C25A",
"l#	c #E0BB56",
"m#	c #BDAA84",
"n#	c #B4B5B8",
"o#	c #A5A5A6",
"p#	c #B8B8B9",
"q#	c #BCBAB4",
"r#	c #B2A99D",
"s#	c #B3AA9E",
"t#	c #B7AEA1",
"u#	c #BBB1A4",
"v#	c #BFB5A8",
"w#	c #C3B9AD",
"x#	c #C8BDB1",
"y#	c #CCC2B5",
"z#	c #CFC6B8",
"A#	c #D3C9BD",
"B#	c #D5CBBF",
"C#	c #D8CEC0",
"D#	c #D8CFC0",
"E#	c #D7CDC0",
"F#	c #D2C8BC",
"G#	c #CFC5B8",
"H#	c #CBC1B4",
"I#	c #C6BCB0",
"J#	c #C2B8AC",
"K#	c #BEB4A8",
"L#	c #BAB0A4",
"M#	c #B6ADA1",
"N#	c #B4AA9E",
"O#	c #B2A89C",
"P#	c #BCB8B3",
"Q#	c #BBBBBC",
"R#	c #99999A",
"S#	c #959596",
"T#	c #8D8D8F",
"U#	c #8D8D90",
"V#	c #8E8E90",
"W#	c #909092",
"X#	c #939395",
"Y#	c #959597",
"Z#	c #97989A",
"`#	c #9A9A9C",
" $	c #9C9D9F",
".$	c #9F9FA1",
"+$	c #A1A2A3",
"@$	c #A3A4A5",
"#$	c #A4A5A6",
"$$	c #A2A2A4",
"%$	c #9FA0A2",
"&$	c #9D9EA0",
"*$	c #9B9B9D",
"=$	c #99999B",
"-$	c #969798",
";$	c #939496",
">$	c #909193",
",$	c #8F8F91",
"'$	c #8D8E90",
")$	c #8C8D8F",
"!$	c #8D8D8E",
"~$	c #8B8B8B",
"{$	c #868686",
"                                                                ",
"                                                                ",
"                            . + @                               ",
"                            # $ % &                             ",
"                          * = - ; > ,                           ",
"                          ' ) ! ~ { ]                           ",
"                        ^ / ( _ : < [ }                         ",
"                      | 1 2 3 4 5 6 7 8 ^                       ",
"                      9 0 a b c d e f g h                       ",
"                    i j k l m n n o p q r s                     ",
"                    t u v w x y z A B C D E                     ",
"                  F G H I J K L M N O P Q R S                   ",
"                T U V W X Y Z `  ...+.@.#.$.S %.                ",
"                &.*.=.-.;.>.,.'.).!.~.{.].^./.]                 ",
"              9 (._.:.<.[.}.|.1.2.3.4.5.6.7.8.9.0.              ",
"              %.a.b.c.d.e.f.g.h.i.j.k.l.m.n.o.p.q.              ",
"            * r.s.t.u.v.w.x.y.z.A.B.C.D.E.F.G.H.I.,             ",
"          J.K.L.M.N.O.P.Q.R.S.T.U.V.W.X.Y.Z.`. +.+++9           ",
"          @ @+#+$+%+&+*+=+-+;+>+,+'+)+!+~+{+]+^+/+(+&           ",
"          _+:+<+[+}+|+1+2+3+4+5+6+7+8+9+0+a+b+c+d+e+f+          ",
"        g+h+i+j+k+l+m+n+o+p+q+r+s+t+u+v+a+w+x+y+z+A+B+E         ",
"      C+D+E+F+G+1+H+I+J+K+L+M+N+O+P+Q+R+S+c+T+U+V+W+X+Y+Z+      ",
"      &.`+ @1+H+n+o+.@+@!+@@#@$@%@&@*@S+=@-@V+;@>@,@'@+ )@      ",
"    !@j ~@{@]@^@/@(@_@:@<@[@}@|@1@2@3@4@5@6@7@>@8@8@9@0@a@s     ",
"    b@c@d@e@f@g@h@i@j@k@l@m@n@o@p@q@r@s@t@u@v@w@w@x@y@z@A@B@    ",
"  @ C@D@E@F@G@H@I@J@K@L@M@N@O@6+P@Q@R@S@T@U@V@V@U@U@W@X@Y@Z@`@  ",
" #.#+#@###$#%#&#*#=#-#;#>#,#'#)#!#~#{#]#^#/#/#^#^#(#]#_#:#<#] ^ ",
"[#}#|#1#2#3#4#5#6#7#8#8#8#9#0#a#b#c#d#e#f#g#h#g#i#d#j#k#l#m#n#o#",
"p#D+q#r#r#s#t#u#v#w#x#y#z#A#B#C#D#E#B#F#G#H#I#J#K#L#M#N#O#P#Q#R#",
"  S#T#T#U#V#W#X#Y#Z#`# $.$+$@$#$o#@$$$%$&$*$=$-$;$>$,$'$)$!$~${$",
"                                                                ",
"                                                                "};
