/* XPM */
static char * warning_16_xpm[] = {
"16 16 129 2",
"  	c None",
". 	c #C7C8C9",
"+ 	c #B7B7B8",
"@ 	c #C6C6C6",
"# 	c #C0BF8F",
"$ 	c #C2C18E",
"% 	c #B0B0B1",
"& 	c #B9B9B6",
"* 	c #E6E230",
"= 	c #E8E32D",
"- 	c #B6B6B3",
"; 	c #C4C4C5",
"> 	c #CDCA7D",
", 	c #F7F00C",
"' 	c #F6EE0E",
") 	c #D1CC81",
"! 	c #B1B1B2",
"~ 	c #C5C4B7",
"{ 	c #D9D334",
"] 	c #7C7B62",
"^ 	c #7D7C60",
"/ 	c #DACC39",
"( 	c #C1BFB4",
"_ 	c #CDCDCE",
": 	c #DFD870",
"< 	c #E0D625",
"[ 	c #70706E",
"} 	c #6B6A64",
"| 	c #DECA2C",
"1 	c #DACB77",
"2 	c #BCBDBE",
"3 	c #D5D3B7",
"4 	c #F4E52E",
"5 	c #E0D329",
"6 	c #5D5C58",
"7 	c #56554E",
"8 	c #DDC528",
"9 	c #E7C927",
"0 	c #D2CCB7",
"a 	c #CCCCCC",
"b 	c #E4D85D",
"c 	c #F5E12B",
"d 	c #DECB29",
"e 	c #45443E",
"f 	c #514F44",
"g 	c #DEBE1C",
"h 	c #EBC514",
"i 	c #D8BA49",
"j 	c #C1C1C2",
"k 	c #D2CB9A",
"l 	c #EFD720",
"m 	c #ECCE18",
"n 	c #D7B813",
"o 	c #1E1C0F",
"p 	c #444133",
"q 	c #D9AE07",
"r 	c #E5B503",
"s 	c #E3B006",
"t 	c #CBBD98",
"u 	c #ADAEAE",
"v 	c #C0BFBC",
"w 	c #DEC52C",
"x 	c #E8C50C",
"y 	c #E6C20C",
"z 	c #DCB70A",
"A 	c #3C3414",
"B 	c #675D3C",
"C 	c #DBAB03",
"D 	c #E4AE01",
"E 	c #E3AB03",
"F 	c #D3A52A",
"G 	c #BAB9B8",
"H 	c #C0C0C1",
"I 	c #C9BA6B",
"J 	c #E6C30D",
"K 	c #E6C00B",
"L 	c #E6BC08",
"M 	c #E5B804",
"N 	c #A5840D",
"O 	c #AE8B15",
"P 	c #E3AD02",
"Q 	c #E2A904",
"R 	c #E1A707",
"S 	c #DFA408",
"T 	c #C4AC74",
"U 	c #B5B2A3",
"V 	c #E3C224",
"W 	c #E8C219",
"X 	c #E8BE16",
"Y 	c #E7BB13",
"Z 	c #DCB00F",
"` 	c #332E1E",
" .	c #645F4F",
"..	c #DCA915",
"+.	c #E3AC17",
"@.	c #E2AB18",
"#.	c #D7A422",
"$.	c #B4AFA8",
"%.	c #BEBEC0",
"&.	c #CCBC70",
"*.	c #EBCE4D",
"=.	c #EBCB4D",
"-.	c #ECCA4D",
";.	c #EDC94B",
">.	c #EDC84B",
",.	c #BDA14B",
"'.	c #BDA251",
").	c #E8C04D",
"!.	c #E8BF4F",
"~.	c #E8C04E",
"{.	c #E9C14D",
"].	c #C7B076",
"^.	c #ADADAF",
"/.	c #ADADAE",
"(.	c #A2A09C",
"_.	c #A19C97",
":.	c #A6A19B",
"<.	c #ACA7A2",
"[.	c #B3AEA9",
"}.	c #B9B4AF",
"|.	c #BDB9B3",
"1.	c #BEBAB3",
"2.	c #BAB6B0",
"3.	c #B5B0AB",
"4.	c #AEA9A4",
"5.	c #A7A39D",
"6.	c #A29D98",
"7.	c #A29F9B",
"8.	c #99999A",
"                                ",
"              . +               ",
"            @ # $ %             ",
"            & * = -             ",
"          ; > , ' ) !           ",
"          ~ { ] ^ / (           ",
"        _ : < [ } | 1 2         ",
"        3 4 5 6 7 8 9 0         ",
"      a b c d e f g h i j       ",
"    j k l m n o p q r s t u     ",
"    v w x y z A B C D E F G     ",
"  H I J K L M N O P Q R S T %   ",
"  U V W X Y Z `  ...+.@.@.#.$.  ",
"%.&.*.=.-.;.>.,.'.).!.!.~.{.].^.",
"/.(._.:.<.[.}.|.1.2.3.4.5.6.7.8.",
"                                "};
