<?xml version="1.0" encoding="UTF-8" standalone="no"?>
<!-- Created with Inkscape (http://www.inkscape.org/) -->

<svg
   xmlns:osb="http://www.openswatchbook.org/uri/2009/osb"
   xmlns:dc="http://purl.org/dc/elements/1.1/"
   xmlns:cc="http://creativecommons.org/ns#"
   xmlns:rdf="http://www.w3.org/1999/02/22-rdf-syntax-ns#"
   xmlns:svg="http://www.w3.org/2000/svg"
   xmlns="http://www.w3.org/2000/svg"
   xmlns:sodipodi="http://sodipodi.sourceforge.net/DTD/sodipodi-0.dtd"
   xmlns:inkscape="http://www.inkscape.org/namespaces/inkscape"
   width="64"
   height="64"
   id="svg2"
   version="1.1"
   inkscape:version="0.48.4 r9939"
   sodipodi:docname="rait_icon(2).svg"
   inkscape:export-filename="C:\Users\kushagrabhargava\Desktop\rait_icon(2).png"
   inkscape:export-xdpi="90"
   inkscape:export-ydpi="90">
  <defs
     id="defs4">
    <inkscape:path-effect
       effect="spiro"
       id="path-effect6070"
       is_visible="true" />
    <linearGradient
       id="linearGradient4205"
       osb:paint="solid">
      <stop
         style="stop-color:#00ffff;stop-opacity:1;"
         offset="0"
         id="stop4207" />
    </linearGradient>
    <inkscape:perspective
       sodipodi:type="inkscape:persp3d"
       inkscape:vp_x="6.1905955 : 24.385996 : 1"
       inkscape:vp_y="-3.828589e-013 : 1000 : 0"
       inkscape:vp_z="16 : 5.333333 : 0"
       inkscape:persp3d-origin="16 : 10.666667 : 1"
       id="perspective3899" />
  </defs>
  <sodipodi:namedview
     id="base"
     pagecolor="#ffffff"
     bordercolor="#666666"
     borderopacity="1.0"
     inkscape:pageopacity="0.0"
     inkscape:pageshadow="2"
     inkscape:zoom="8"
     inkscape:cx="14.92808"
     inkscape:cy="27.73198"
     inkscape:document-units="px"
     inkscape:current-layer="layer1"
     showgrid="false"
     inkscape:window-width="1920"
     inkscape:window-height="1058"
     inkscape:window-x="-8"
     inkscape:window-y="-8"
     inkscape:window-maximized="1"
     inkscape:snap-global="false">
    <inkscape:grid
       type="xygrid"
       id="grid2985"
       empspacing="5"
       visible="true"
       enabled="true"
       snapvisiblegridlinesonly="true" />
  </sodipodi:namedview>
  <metadata
     id="metadata7">
    <rdf:RDF>
      <cc:Work
         rdf:about="">
        <dc:format>image/svg+xml</dc:format>
        <dc:type
           rdf:resource="http://purl.org/dc/dcmitype/StillImage" />
        <dc:title></dc:title>
      </cc:Work>
    </rdf:RDF>
  </metadata>
  <g
     inkscape:label="Layer 1"
     inkscape:groupmode="layer"
     id="layer1"
     transform="translate(0,-988.3622)">
    <g
       id="g3910">
      <rect
         ry="1.0715737e-013"
         rx="1.8806647e-013"
         y="988.0155"
         x="-0.53033006"
         height="64.346718"
         width="64.877045"
         id="rect6087"
         style="fill:#000000;fill-opacity:1;fill-rule:nonzero;stroke:none" />
      <g
         id="g3894">
        <path
           inkscape:connector-curvature="0"
           id="path3992"
           d="m 14.414969,1044.4778 0,0.035 -3.672617,3.5615 0,2.0352 42.235106,0 0.06315,-2.0028 -3.123658,-3.5939 0,-0.035 z"
           style="fill:#0080ff;fill-opacity:1;stroke:#000000;stroke-width:0.55806369;stroke-linecap:round;stroke-linejoin:round;stroke-miterlimit:4;stroke-opacity:1;stroke-dasharray:none"
           sodipodi:nodetypes="ccccccccc" />
        <path
           inkscape:connector-curvature="0"
           id="path3990"
           d="m 12.371296,1032.24 2.442447,-2.0311 34.194259,0 1.831838,2.0311 z"
           style="fill:#0080ff;fill-opacity:1;stroke:#0080ff;stroke-width:0.64293175999999996;stroke-linecap:round;stroke-linejoin:round;stroke-miterlimit:4;stroke-opacity:1;stroke-dasharray:none" />
        <g
           id="g3887">
          <path
             style="fill:#0080ff;fill-opacity:1;stroke:#000000;stroke-width:0.55806369;stroke-linecap:round;stroke-linejoin:round;stroke-miterlimit:4;stroke-opacity:1;stroke-dasharray:none"
             d="m 10.130249,1033.3162 43.45931,0 0,9.6669 -43.45931,0 z"
             id="path3988"
             inkscape:connector-curvature="0" />
          <path
             style="fill:#ffffff;fill-opacity:1;stroke:#ffffff;stroke-width:2.29550147000000000;stroke-linecap:butt;stroke-linejoin:miter;stroke-miterlimit:4;stroke-opacity:1;stroke-dasharray:none"
             d="m 15.171141,1036.3006 0,3.4453 12.234958,0 0,-3.4453 z"
             id="path4032"
             inkscape:connector-curvature="0" />
          <path
             sodipodi:type="star"
             style="fill:#ffffff;fill-opacity:1;stroke:#ffffff;stroke-width:0.20000000000000001;stroke-miterlimit:4;stroke-opacity:1;stroke-dasharray:none"
             id="path4046"
             sodipodi:sides="4"
             sodipodi:cx="13"
             sodipodi:cy="22"
             sodipodi:r1="1.4142137"
             sodipodi:r2="1"
             sodipodi:arg1="0.78539816"
             sodipodi:arg2="1.5707963"
             inkscape:flatsided="true"
             inkscape:rounded="0"
             inkscape:randomized="0"
             d="m 14,23 -2,0 0,-2 2,0 z"
             transform="matrix(1.560479,0,0,3.3029719,15.006996,965.44254)" />
          <path
             sodipodi:type="star"
             style="fill:#ffffff;fill-opacity:1;stroke:#ffffff;stroke-width:0.20000000000000001;stroke-miterlimit:4;stroke-opacity:1;stroke-dasharray:none"
             id="path4046-8"
             sodipodi:sides="4"
             sodipodi:cx="13"
             sodipodi:cy="22"
             sodipodi:r1="1.4142137"
             sodipodi:r2="1"
             sodipodi:arg1="0.78539816"
             sodipodi:arg2="1.5707963"
             inkscape:flatsided="true"
             inkscape:rounded="0"
             inkscape:randomized="0"
             d="m 14,23 -2,0 0,-2 2,0 z"
             transform="matrix(1.560479,0,0,3.3029719,21.348237,965.43626)" />
          <path
             transform="matrix(4.4939167,0,0,3.8449307,-34.321066,954.9803)"
             d="m 19,21.65625 a 0.5078125,0.546875 0 1 1 -1.015625,0 0.5078125,0.546875 0 1 1 1.015625,0 z"
             sodipodi:ry="0.546875"
             sodipodi:rx="0.5078125"
             sodipodi:cy="21.65625"
             sodipodi:cx="18.492188"
             id="path4172"
             style="fill:#ffffff;fill-opacity:1;stroke:#ffffff;stroke-width:0.20299998999999999;stroke-linecap:round;stroke-linejoin:miter;stroke-miterlimit:4;stroke-opacity:1;stroke-dasharray:none;stroke-dashoffset:0"
             sodipodi:type="arc" />
        </g>
      </g>
      <path
         style="fill:#000000;fill-opacity:1;fill-rule:nonzero;stroke:#000000;stroke-width:0.003125;stroke-linecap:round;stroke-linejoin:miter;stroke-miterlimit:4;stroke-opacity:1;stroke-dasharray:none;stroke-dashoffset:0"
         d="m 16.087429,1025.9299 c -6.78e-4,-0.017 0.003,-0.026 0.0082,-0.021 0.0052,0.01 0.0057,0.019 0.0012,0.03 -0.005,0.013 -0.0087,0.01 -0.0094,-0.01 z"
         id="path4112"
         inkscape:connector-curvature="0" />
      <path
         style="fill:#000000;fill-opacity:1;fill-rule:nonzero;stroke:#000000;stroke-width:0.003125;stroke-linecap:round;stroke-linejoin:miter;stroke-miterlimit:4;stroke-opacity:1;stroke-dasharray:none;stroke-dashoffset:0"
         d=""
         id="path4114"
         inkscape:connector-curvature="0" />
      <g
         id="g3882">
        <path
           sodipodi:end="3.1798946"
           sodipodi:start="1.2775611"
           transform="matrix(-2.3790296,1.3428767,-1.698593,-1.9028373,91.710966,1014.0318)"
           d="M 21.236301,9.4201357 A 3.1377864,3.0273008 0 0 1 17.193836,6.4061358"
           sodipodi:ry="3.0273008"
           sodipodi:rx="3.1377864"
           sodipodi:cy="6.522059"
           sodipodi:cx="20.329321"
           id="path4211-2"
           style="fill:none;stroke:#0080ff;stroke-width:1.23135853;stroke-linecap:butt;stroke-linejoin:round;stroke-miterlimit:4;stroke-opacity:1;stroke-dasharray:none;stroke-dashoffset:0"
           sodipodi:type="arc"
           sodipodi:open="true" />
        <path
           sodipodi:end="3.1413056"
           sodipodi:start="1.2290997"
           transform="matrix(-3.4033748,1.7401222,-2.2028265,-2.7211529,116.09617,1008.8848)"
           d="M 21.38075,9.374344 A 3.1377864,3.0273008 0 0 1 17.191535,6.522928"
           sodipodi:ry="3.0273008"
           sodipodi:rx="3.1377864"
           sodipodi:cy="6.522059"
           sodipodi:cx="20.329321"
           id="path4211-2-7"
           style="fill:none;stroke:#0080ff;stroke-width:0.88787204;stroke-linecap:butt;stroke-linejoin:bevel;stroke-miterlimit:4;stroke-opacity:1;stroke-dasharray:none;stroke-dashoffset:0"
           sodipodi:type="arc"
           sodipodi:open="true" />
        <path
           transform="matrix(-0.48877984,0.31117242,-0.33644559,-0.45742413,45.059617,1023.5166)"
           d="m 23.467107,6.522059 a 3.1377864,3.0273008 0 1 1 -6.275572,0 3.1377864,3.0273008 0 1 1 6.275572,0 z"
           sodipodi:ry="3.0273008"
           sodipodi:rx="3.1377864"
           sodipodi:cy="6.522059"
           sodipodi:cx="20.329321"
           id="path4211-2-9"
           style="fill:#0080ff;fill-opacity:1;stroke:#0080ff;stroke-width:1.6356045;stroke-linecap:butt;stroke-linejoin:round;stroke-miterlimit:4;stroke-opacity:1;stroke-dasharray:none;stroke-dashoffset:0"
           sodipodi:type="arc" />
      </g>
      <g
         id="g3904">
        <path
           sodipodi:type="arc"
           style="fill:#ffff00;fill-opacity:1;fill-rule:nonzero;stroke:#000000;stroke-width:0.1;stroke-linecap:square;stroke-linejoin:round;stroke-miterlimit:4;stroke-opacity:1;stroke-dasharray:none;stroke-dashoffset:0"
           id="path3006"
           sodipodi:cx="-12.28598"
           sodipodi:cy="10.525049"
           sodipodi:rx="2.3864853"
           sodipodi:ry="2.563262"
           d="m -9.8994949,10.525049 a 2.3864853,2.563262 0 1 1 -4.7729711,0 2.3864853,2.563262 0 1 1 4.7729711,0 z"
           transform="matrix(1.6484104,0,0,1.5357715,25.820804,977.95022)" />
        <path
           sodipodi:type="arc"
           style="fill:#ffff00;fill-opacity:1;fill-rule:nonzero;stroke:#000000;stroke-width:0.1;stroke-linecap:square;stroke-linejoin:round;stroke-miterlimit:4;stroke-opacity:1;stroke-dasharray:none;stroke-dashoffset:0"
           id="path3006-1"
           sodipodi:cx="-12.28598"
           sodipodi:cy="10.525049"
           sodipodi:rx="2.3864853"
           sodipodi:ry="2.563262"
           d="m -9.8994949,10.525049 a 2.3864853,2.563262 0 1 1 -4.7729711,0 2.3864853,2.563262 0 1 1 4.7729711,0 z"
           transform="matrix(1.6484104,0,0,1.5357715,78.411871,978.03861)" />
        <path
           sodipodi:type="arc"
           style="fill:#ffff00;fill-opacity:1;fill-rule:nonzero;stroke:#000000;stroke-width:0.1;stroke-linecap:square;stroke-linejoin:round;stroke-miterlimit:4;stroke-opacity:1;stroke-dasharray:none;stroke-dashoffset:0"
           id="path3006-7"
           sodipodi:cx="-12.28598"
           sodipodi:cy="10.525049"
           sodipodi:rx="2.3864853"
           sodipodi:ry="2.563262"
           d="m -9.8994949,10.525049 a 2.3864853,2.563262 0 1 1 -4.7729711,0 2.3864853,2.563262 0 1 1 4.7729711,0 z"
           transform="matrix(1.6484104,0,0,1.5357715,25.909191,1030.0109)" />
        <path
           sodipodi:type="arc"
           style="fill:#ffff00;fill-opacity:1;fill-rule:nonzero;stroke:#000000;stroke-width:0.1;stroke-linecap:square;stroke-linejoin:round;stroke-miterlimit:4;stroke-opacity:1;stroke-dasharray:none;stroke-dashoffset:0"
           id="path3006-4"
           sodipodi:cx="-12.28598"
           sodipodi:cy="10.525049"
           sodipodi:rx="2.3864853"
           sodipodi:ry="2.563262"
           d="m -9.8994949,10.525049 a 2.3864853,2.563262 0 1 1 -4.7729711,0 2.3864853,2.563262 0 1 1 4.7729711,0 z"
           transform="matrix(1.6484104,0,0,1.5357715,78.411869,1030.0109)" />
      </g>
      <g
         id="g3876">
        <path
           style="fill:#0080ff;fill-opacity:1;stroke:#0080ff;stroke-width:0.91933137px;stroke-linecap:butt;stroke-linejoin:miter;stroke-opacity:1"
           d="m 14.265168,1013.0706 c -1.445013,-0.029 -2.860674,-0.751 -3.732834,-1.9035 -0.8721599,-1.1525 -1.1822401,-2.711 -0.8176236,-4.1096 0.3063106,-1.1749 1.0766976,-2.2221 2.1071636,-2.8643 1.030466,-0.6422 2.309952,-0.8724 3.499651,-0.6298 -0.317007,-1.1764 -0.226186,-2.4585 0.253476,-3.57849 0.479663,-1.11994 1.345053,-2.07037 2.41526,-2.65261 1.52858,-0.83161 3.461028,-0.87276 5.023619,-0.10696 0.974188,-2.43746 2.778501,-4.53434 5.043388,-5.86119 2.264887,-1.32684 4.976264,-1.87539 7.578802,-1.5333 2.547655,0.33488 4.976129,1.52011 6.807566,3.32248 1.831437,1.80237 3.055371,4.21157 3.430965,6.75354 1.243061,-0.29208 2.569935,-0.21754 3.77246,0.21193 1.202526,0.4295 2.276426,1.2123 3.053227,2.2258 0.772713,1.0081 1.24881,2.2408 1.354351,3.5066 0.10554,1.2658 -0.159845,2.5603 -0.754937,3.6825 -0.595093,1.1222 -1.517821,2.0681 -2.624876,2.6908 -1.107055,0.6228 -2.39458,0.9202 -3.662611,0.8461 l -32.747047,0"
           id="path6068"
           inkscape:path-effect="#path-effect6070"
           inkscape:original-d="m 14.265168,1013.0706 c 0,0 -5.2400902,-1.1176 -4.5504576,-6.0131 0.8552446,-6.071 5.6068146,-3.4941 5.6068146,-3.4941 0,0 0.767759,-4.17261 2.668736,-6.2311 5.842319,-6.32638 5.023619,-0.10696 5.023619,-0.10696 0,0 3.947835,-9.5923 12.62219,-7.39449 6.821894,1.72845 10.238531,10.07602 10.238531,10.07602 0,0 2.715743,-7.76872 6.825687,2.43773 3.484312,8.6527 -5.688073,10.726 -5.688073,10.726 z"
           inkscape:connector-curvature="0"
           sodipodi:nodetypes="cscscscscc" />
        <g
           id="g3872"
           transform="matrix(1.2480638,0,0,1.1450215,-88.726737,-147.12517)">
          <path
             sodipodi:nodetypes="ccsccsssccccccccsssscc"
             inkscape:connector-curvature="0"
             id="path3868"
             d="m 96.703558,1006.7728 0.01105,5.0408 c 0,0 0.735496,0.7946 1.595023,0.802 0.867876,0.01 1.513404,-0.7545 1.513404,-0.7545 l 0.03677,-5.1195 c 0,0 1.004265,-0.8358 1.281245,-1.4063 0.19374,-0.3989 0.2547,-0.8704 0.21875,-1.3125 -0.0473,-0.5811 -0.22994,-1.1773 -0.5625,-1.6562 -0.29136,-0.4196 -1.187495,-0.9688 -1.187495,-0.9688 l -0.21875,0.1875 0.0221,2.7081 -0.308709,0.4775 -1.638269,-0.01 -0.387619,-0.4576 0.03125,-2.6875 -0.15625,-0.2188 c 0,0 -0.769553,0.4992 -1.0625,0.8438 -0.262801,0.3091 -0.487646,0.6709 -0.59375,1.0625 -0.13896,0.5129 -0.15891,1.078 -0.03125,1.5937 0.108657,0.4391 0.37293,0.835 0.65625,1.1875 0.217314,0.2704 0.78125,0.6875 0.78125,0.6875 z"
             style="fill:#000000;fill-opacity:1;stroke:#000000;stroke-width:0.1;stroke-linecap:butt;stroke-linejoin:miter;stroke-miterlimit:4;stroke-opacity:1;stroke-dasharray:none" />
          <path
             sodipodi:nodetypes="ccssssssccccccsccccsccccsccccsccccsccccsccccc"
             inkscape:connector-curvature="0"
             id="path3870"
             d="m 95.4375,1009.956 -0.03125,-2.0625 c 0,0 -1.371144,-0.9986 -1.78125,-2.3438 -0.353012,-1.1579 -0.288002,-2.5256 0.21875,-3.625 0.508849,-1.1039 1.497805,-2.07631 2.625,-2.53125 1.081873,-0.43665 2.412919,-0.42351 3.5,0 1.13345,0.44158 2.18094,1.36285 2.6875,2.46875 0.55552,1.2128 0.56351,2.7402 0.125,4 -0.46881,1.3469 -1.84375,2.2188 -1.84375,2.2188 l 0.0312,1.875 0.8125,-0.375 1.53125,1.0625 1.46875,-1.5 -0.875,-1.6875 c 0,0 0.34,-0.5477 0.46581,-0.8547 0.13461,-0.3284 0.31544,-1.0516 0.31544,-1.0516 l 1.90625,-0.5625 -0.0625,-1.9375 -1.875,-0.5625 c 0,0 -0.16274,-0.6811 -0.29701,-1.0116 -0.1366,-0.3362 -0.51549,-0.9884 -0.51549,-0.9884 l 0.96875,-1.65625 -1.5,-1.40625 -1.59375,1 c 0,0 -0.57904,-0.41753 -0.81332,-0.52686 -0.39072,-0.18234 -1.06168,-0.34814 -1.06168,-0.34814 l -0.46875,-1.875 -2.125,0 -0.5625,1.96875 c 0,0 -0.587326,0.0599 -0.914064,0.18951 -0.277422,0.11002 -0.898436,0.52924 -0.898436,0.52924 l -1.59375,-0.90625 -1.53125,1.4375 0.9375,1.59375 c 0,0 -0.368126,0.6169 -0.496947,0.9363 -0.131596,0.3264 -0.284303,1.0012 -0.284303,1.0012 L 90,1002.956 l -0.03125,2 1.875,0.625 c 0,0 0.190352,0.7352 0.329723,1.0697 0.121046,0.2905 0.451527,0.8053 0.451527,0.8053 l -0.875,1.6562 1.4375,1.4688 1.59375,-1.0625 z"
             style="fill:#000000;fill-opacity:1;stroke:#000000;stroke-width:0.1;stroke-linecap:butt;stroke-linejoin:miter;stroke-miterlimit:4;stroke-opacity:1;stroke-dasharray:none" />
        </g>
      </g>
    </g>
  </g>
</svg>
