<?xml version="1.0" encoding="UTF-8" standalone="no"?>
<!-- Created with Inkscape (http://www.inkscape.org/) -->

<svg
   xmlns:osb="http://www.openswatchbook.org/uri/2009/osb"
   xmlns:dc="http://purl.org/dc/elements/1.1/"
   xmlns:cc="http://creativecommons.org/ns#"
   xmlns:rdf="http://www.w3.org/1999/02/22-rdf-syntax-ns#"
   xmlns:svg="http://www.w3.org/2000/svg"
   xmlns="http://www.w3.org/2000/svg"
   xmlns:sodipodi="http://sodipodi.sourceforge.net/DTD/sodipodi-0.dtd"
   xmlns:inkscape="http://www.inkscape.org/namespaces/inkscape"
   width="64"
   height="64"
   id="svg2"
   version="1.1"
   inkscape:version="0.48.4 r9939"
   sodipodi:docname="rait_icon.svg"
   inkscape:export-filename="C:\Users\kushagrabhargava\Desktop\rait_icon.png"
   inkscape:export-xdpi="90"
   inkscape:export-ydpi="90">
  <defs
     id="defs4">
    <inkscape:path-effect
       effect="spiro"
       id="path-effect6070"
       is_visible="true" />
    <linearGradient
       id="linearGradient4205"
       osb:paint="solid">
      <stop
         style="stop-color:#00ffff;stop-opacity:1;"
         offset="0"
         id="stop4207" />
    </linearGradient>
    <inkscape:perspective
       sodipodi:type="inkscape:persp3d"
       inkscape:vp_x="6.1905955 : 24.385996 : 1"
       inkscape:vp_y="-3.828589e-013 : 1000 : 0"
       inkscape:vp_z="16 : 5.333333 : 0"
       inkscape:persp3d-origin="16 : 10.666667 : 1"
       id="perspective3899" />
    <inkscape:path-effect
       effect="spiro"
       id="path-effect6070-1"
       is_visible="true" />
  </defs>
  <sodipodi:namedview
     id="base"
     pagecolor="#ffffff"
     bordercolor="#666666"
     borderopacity="1.0"
     inkscape:pageopacity="0.0"
     inkscape:pageshadow="2"
     inkscape:zoom="1"
     inkscape:cx="18.914454"
     inkscape:cy="42.96507"
     inkscape:document-units="px"
     inkscape:current-layer="layer1"
     showgrid="false"
     inkscape:window-width="1920"
     inkscape:window-height="1058"
     inkscape:window-x="-8"
     inkscape:window-y="-8"
     inkscape:window-maximized="1"
     inkscape:snap-global="false">
    <inkscape:grid
       type="xygrid"
       id="grid2985"
       empspacing="5"
       visible="true"
       enabled="true"
       snapvisiblegridlinesonly="true" />
  </sodipodi:namedview>
  <metadata
     id="metadata7">
    <rdf:RDF>
      <cc:Work
         rdf:about="">
        <dc:format>image/svg+xml</dc:format>
        <dc:type
           rdf:resource="http://purl.org/dc/dcmitype/StillImage" />
        <dc:title></dc:title>
      </cc:Work>
    </rdf:RDF>
  </metadata>
  <g
     inkscape:label="Layer 1"
     inkscape:groupmode="layer"
     id="layer1"
     transform="translate(0,-988.3622)">
    <g
       id="g3933">
      <path
         transform="translate(0,988.3622)"
         inkscape:connector-curvature="0"
         id="path3887"
         d="M 0,0.00683615 0.1767767,64 64.16994,64.176777 l 0,-64.34671748 z"
         style="fill:#ffff00;stroke:#000000;stroke-width:0.5;stroke-linecap:butt;stroke-linejoin:round;stroke-opacity:1;fill-opacity:1;stroke-miterlimit:4;stroke-dasharray:none" />
      <g
         id="g3923">
        <path
           inkscape:connector-curvature="0"
           id="path3992"
           d="m 14.945299,1044.4778 0,0.035 -3.672617,3.5615 0,2.0352 42.235106,0 0.06315,-2.0028 -3.123658,-3.5939 0,-0.035 z"
           style="fill:#000000;fill-opacity:1;stroke:#000000;stroke-width:0.55806369000000000;stroke-linecap:round;stroke-linejoin:round;stroke-miterlimit:4;stroke-opacity:1;stroke-dasharray:none"
           sodipodi:nodetypes="ccccccccc" />
        <path
           inkscape:connector-curvature="0"
           id="path3990"
           d="m 12.901626,1032.24 2.442447,-2.0311 34.194259,0 1.831838,2.0311 z"
           style="fill:#000000;fill-opacity:1;stroke:#000000;stroke-width:0.64293175999999996;stroke-linecap:round;stroke-linejoin:round;stroke-miterlimit:4;stroke-opacity:1;stroke-dasharray:none" />
        <g
           id="g3916">
          <path
             style="fill:#000000;fill-opacity:1;stroke:#000000;stroke-width:0.55806369000000000;stroke-linecap:round;stroke-linejoin:round;stroke-miterlimit:4;stroke-opacity:1;stroke-dasharray:none"
             d="m 10.660579,1033.3162 43.45931,0 0,9.6669 -43.45931,0 z"
             id="path3988"
             inkscape:connector-curvature="0" />
          <path
             style="fill:#ffffff;fill-opacity:1;stroke:#ffffff;stroke-width:2.29550147;stroke-linecap:butt;stroke-linejoin:miter;stroke-miterlimit:4;stroke-opacity:1;stroke-dasharray:none"
             d="m 15.701471,1036.3006 0,3.4453 12.234958,0 0,-3.4453 z"
             id="path4032"
             inkscape:connector-curvature="0" />
          <path
             sodipodi:type="star"
             style="fill:#ffffff;fill-opacity:1;stroke:#ffffff;stroke-width:0.2;stroke-miterlimit:4;stroke-opacity:1;stroke-dasharray:none"
             id="path4046"
             sodipodi:sides="4"
             sodipodi:cx="13"
             sodipodi:cy="22"
             sodipodi:r1="1.4142137"
             sodipodi:r2="1"
             sodipodi:arg1="0.78539816"
             sodipodi:arg2="1.5707963"
             inkscape:flatsided="true"
             inkscape:rounded="0"
             inkscape:randomized="0"
             d="m 14,23 -2,0 0,-2 2,0 z"
             transform="matrix(1.560479,0,0,3.3029719,15.537326,965.44252)" />
          <path
             sodipodi:type="star"
             style="fill:#ffffff;fill-opacity:1;stroke:#ffffff;stroke-width:0.2;stroke-miterlimit:4;stroke-opacity:1;stroke-dasharray:none"
             id="path4046-8"
             sodipodi:sides="4"
             sodipodi:cx="13"
             sodipodi:cy="22"
             sodipodi:r1="1.4142137"
             sodipodi:r2="1"
             sodipodi:arg1="0.78539816"
             sodipodi:arg2="1.5707963"
             inkscape:flatsided="true"
             inkscape:rounded="0"
             inkscape:randomized="0"
             d="m 14,23 -2,0 0,-2 2,0 z"
             transform="matrix(1.560479,0,0,3.3029719,21.878567,965.43624)" />
          <path
             transform="matrix(4.4939167,0,0,3.8449307,-33.790736,954.98028)"
             d="m 19,21.65625 a 0.5078125,0.546875 0 1 1 -1.015625,0 0.5078125,0.546875 0 1 1 1.015625,0 z"
             sodipodi:ry="0.546875"
             sodipodi:rx="0.5078125"
             sodipodi:cy="21.65625"
             sodipodi:cx="18.492188"
             id="path4172"
             style="fill:#ffffff;fill-opacity:1;stroke:#ffffff;stroke-width:0.20299999;stroke-linecap:round;stroke-linejoin:miter;stroke-miterlimit:4;stroke-opacity:1;stroke-dasharray:none;stroke-dashoffset:0"
             sodipodi:type="arc" />
        </g>
      </g>
      <path
         style="fill:#000000;fill-opacity:1;fill-rule:nonzero;stroke:#000000;stroke-width:0.003125;stroke-linecap:round;stroke-linejoin:miter;stroke-miterlimit:4;stroke-opacity:1;stroke-dasharray:none;stroke-dashoffset:0"
         d="m 16.617759,1025.9299 c -6.78e-4,-0.017 0.003,-0.026 0.0082,-0.021 0.0052,0.01 0.0057,0.019 0.0012,0.03 -0.005,0.013 -0.0087,0.01 -0.0094,-0.01 z"
         id="path4112"
         inkscape:connector-curvature="0" />
      <path
         style="fill:#000000;fill-opacity:1;fill-rule:nonzero;stroke:#000000;stroke-width:0.003125;stroke-linecap:round;stroke-linejoin:miter;stroke-miterlimit:4;stroke-opacity:1;stroke-dasharray:none;stroke-dashoffset:0"
         d=""
         id="path4114"
         inkscape:connector-curvature="0" />
      <g
         id="g3911">
        <path
           sodipodi:end="3.1798946"
           sodipodi:start="1.2775611"
           transform="matrix(-2.3790296,1.3428767,-1.698593,-1.9028373,92.241296,1014.0318)"
           d="M 21.236301,9.4201357 A 3.1377864,3.0273008 0 0 1 17.193836,6.4061358"
           sodipodi:ry="3.0273008"
           sodipodi:rx="3.1377864"
           sodipodi:cy="6.522059"
           sodipodi:cx="20.329321"
           id="path4211-2"
           style="fill:none;stroke:#0080ff;stroke-width:1.23135853;stroke-linecap:butt;stroke-linejoin:round;stroke-miterlimit:4;stroke-opacity:1;stroke-dasharray:none;stroke-dashoffset:0"
           sodipodi:type="arc"
           sodipodi:open="true" />
        <path
           sodipodi:end="3.1413056"
           sodipodi:start="1.2290997"
           transform="matrix(-3.4033748,1.7401222,-2.2028265,-2.7211529,116.6265,1008.8848)"
           d="M 21.38075,9.374344 A 3.1377864,3.0273008 0 0 1 17.191535,6.522928"
           sodipodi:ry="3.0273008"
           sodipodi:rx="3.1377864"
           sodipodi:cy="6.522059"
           sodipodi:cx="20.329321"
           id="path4211-2-7"
           style="fill:none;stroke:#0080ff;stroke-width:0.88787204;stroke-linecap:butt;stroke-linejoin:bevel;stroke-miterlimit:4;stroke-opacity:1;stroke-dasharray:none;stroke-dashoffset:0"
           sodipodi:type="arc"
           sodipodi:open="true" />
        <path
           transform="matrix(-0.48877984,0.31117242,-0.33644559,-0.45742413,45.589947,1023.5166)"
           d="m 23.467107,6.522059 a 3.1377864,3.0273008 0 1 1 -6.275572,0 3.1377864,3.0273008 0 1 1 6.275572,0 z"
           sodipodi:ry="3.0273008"
           sodipodi:rx="3.1377864"
           sodipodi:cy="6.522059"
           sodipodi:cx="20.329321"
           id="path4211-2-9"
           style="fill:#0080ff;fill-opacity:1;stroke:#0080ff;stroke-width:1.6356045;stroke-linecap:butt;stroke-linejoin:round;stroke-miterlimit:4;stroke-opacity:1;stroke-dasharray:none;stroke-dashoffset:0"
           sodipodi:type="arc" />
      </g>
      <g
         transform="translate(0.0625,0.3125)"
         id="g3905">
        <path
           style="fill:#0080ff;fill-opacity:1;stroke:#0080ff;stroke-width:0.91933137px;stroke-linecap:butt;stroke-linejoin:miter;stroke-opacity:1"
           d="m 14.795498,1013.0706 c -1.445013,-0.029 -2.860674,-0.751 -3.732834,-1.9035 -0.87216,-1.1525 -1.1822405,-2.711 -0.817624,-4.1096 0.30631,-1.1749 1.076697,-2.2221 2.107164,-2.8643 1.030466,-0.6422 2.309952,-0.8724 3.499651,-0.6298 -0.317011,-1.1764 -0.226193,-2.4586 0.25347,-3.5785 0.479663,-1.11994 1.345056,-2.07038 2.415266,-2.65262 1.52858,-0.83161 3.461028,-0.87276 5.023619,-0.10696 0.974188,-2.43746 2.778501,-4.53434 5.043388,-5.86119 2.264887,-1.32684 4.976264,-1.87539 7.578802,-1.5333 2.547655,0.33488 4.976129,1.52011 6.807566,3.32248 1.831437,1.80237 3.055371,4.21157 3.430965,6.75354 1.243063,-0.29208 2.569938,-0.21753 3.772463,0.21195 1.202525,0.4295 2.276424,1.2123 3.053224,2.2258 0.772709,1.0081 1.248804,2.2408 1.354343,3.5066 0.105539,1.2658 -0.159846,2.5603 -0.754939,3.6825 -0.595092,1.1221 -1.517818,2.0681 -2.624871,2.6908 -1.107053,0.6228 -2.394576,0.9202 -3.662606,0.8461 l -32.747047,0"
           id="path6068"
           inkscape:path-effect="#path-effect6070-1"
           inkscape:original-d="m 14.795498,1013.0706 c 0,0 -5.2400901,-1.1176 -4.550458,-6.0131 0.855245,-6.071 5.606815,-3.4941 5.606815,-3.4941 0,0 0.767759,-4.17263 2.668736,-6.23112 5.842319,-6.32638 5.023619,-0.10696 5.023619,-0.10696 0,0 3.947835,-9.5923 12.62219,-7.39449 6.821894,1.72845 10.238531,10.07602 10.238531,10.07602 0,0 2.715743,-7.76872 6.825687,2.43775 3.484312,8.6527 -5.688073,10.726 -5.688073,10.726 z"
           inkscape:connector-curvature="0"
           sodipodi:nodetypes="cscscscscc" />
        <g
           id="g3901">
          <path
             sodipodi:nodetypes="ccsccsssccccccccsssscc"
             inkscape:connector-curvature="0"
             id="path3868"
             d="m 32.495803,1005.6513 0.01379,5.7718 c 0,0 0.917946,0.9099 1.990691,0.9183 1.083164,0.011 1.888824,-0.8639 1.888824,-0.8639 l 0.04589,-5.8619 c 0,0 1.253386,-0.957 1.599075,-1.6103 0.2418,-0.4567 0.317882,-0.9966 0.273014,-1.5028 -0.05903,-0.6654 -0.28698,-1.348 -0.702036,-1.8964 -0.363636,-0.4804 -1.482069,-1.10928 -1.482069,-1.10928 l -0.273014,0.21469 0.02758,3.10079 -0.385289,0.5468 -2.044664,-0.011 -0.483773,-0.5239 0.039,-3.07726 -0.19501,-0.25053 c 0,0 -0.960451,0.57159 -1.326068,0.96619 -0.327992,0.3539 -0.608613,0.7682 -0.741038,1.2166 -0.173431,0.5872 -0.198329,1.2343 -0.039,1.8248 0.135611,0.5028 0.465441,0.9561 0.819042,1.3597 0.271222,0.3096 0.97505,0.7872 0.97505,0.7872 z"
             style="fill:#000000;fill-opacity:1;stroke:#000000;stroke-width:0.11954329;stroke-linecap:butt;stroke-linejoin:miter;stroke-miterlimit:4;stroke-opacity:1;stroke-dasharray:none" />
          <path
             sodipodi:nodetypes="ccssssssccccccsccccsccccsccccsccccsccccsccccc"
             inkscape:connector-curvature="0"
             id="path3870"
             d="m 30.915682,1009.2961 -0.039,-2.3616 c 0,0 -1.711275,-1.1434 -2.223114,-2.6837 -0.440581,-1.3258 -0.359445,-2.8918 0.273014,-4.1507 0.635076,-1.26396 1.869356,-2.37739 3.276168,-2.8983 1.350246,-0.49998 3.011477,-0.48493 4.368223,0 1.414618,0.50562 2.721952,1.56049 3.354171,2.8268 0.693325,1.3887 0.703297,3.1376 0.156008,4.5801 -0.585104,1.5422 -2.301117,2.5405 -2.301117,2.5405 l 0.03894,2.1469 1.014052,-0.4293 1.911098,1.2165 1.833094,-1.7175 -1.092056,-1.9322 c 0,0 0.424342,-0.6271 0.58136,-0.9787 0.168002,-0.376 0.39369,-1.2041 0.39369,-1.2041 l 2.379121,-0.644 -0.078,-2.2185 -2.340119,-0.6441 c 0,0 -0.20311,-0.77987 -0.370688,-1.1583 -0.170485,-0.38495 -0.643364,-1.13174 -0.643364,-1.13174 l 1.209062,-1.89644 -1.872096,-1.61018 -1.989102,1.14502 c 0,0 -0.722679,-0.47808 -1.015075,-0.60327 -0.487643,-0.20878 -1.325044,-0.39863 -1.325044,-0.39863 l -0.58503,-2.14691 -2.652136,0 -0.702036,2.25426 c 0,0 -0.73302,0.0686 -1.14081,0.21699 -0.34624,0.12598 -1.121305,0.60599 -1.121305,0.60599 l -1.989102,-1.03767 -1.911098,1.64597 1.17006,1.82487 c 0,0 -0.459445,0.70637 -0.620222,1.07209 -0.16424,0.37373 -0.354828,1.14635 -0.354828,1.14635 l -2.379059,0.6084 -0.039,2.29 2.34012,0.7157 c 0,0 0.237571,0.8418 0.411515,1.2248 0.151073,0.3326 0.563534,0.9221 0.563534,0.9221 l -1.092055,1.8964 1.794091,1.6818 1.989102,-1.2166 z"
             style="fill:#000000;fill-opacity:1;stroke:#000000;stroke-width:0.11954329;stroke-linecap:butt;stroke-linejoin:miter;stroke-miterlimit:4;stroke-opacity:1;stroke-dasharray:none" />
        </g>
      </g>
    </g>
  </g>
</svg>
