<?xml version="1.0" encoding="UTF-8" standalone="no"?>
<!-- Created with Inkscape (http://www.inkscape.org/) -->

<svg
   xmlns:dc="http://purl.org/dc/elements/1.1/"
   xmlns:cc="http://creativecommons.org/ns#"
   xmlns:rdf="http://www.w3.org/1999/02/22-rdf-syntax-ns#"
   xmlns:svg="http://www.w3.org/2000/svg"
   xmlns="http://www.w3.org/2000/svg"
   xmlns:sodipodi="http://sodipodi.sourceforge.net/DTD/sodipodi-0.dtd"
   xmlns:inkscape="http://www.inkscape.org/namespaces/inkscape"
   height="65px"
   preserveAspectRatio="xMidYMid meet"
   viewBox="0 0 27.799999 10.143619"
   id="svg7318"
   version="1.1"
   inkscape:version="0.91+devel+osxmenu r12922"
   sodipodi:docname="he_logo.svg"
   >
  <defs
     id="defs7320">
    <clipPath
       id="clip3">
      <path
         inkscape:connector-curvature="0"
         d="m 603,348 11.57422,0 0,16 L 603,364 Z m 0,0"
         id="path4351" />
    </clipPath>
  </defs>
  <metadata
     id="metadata7323">
    <rdf:RDF>
      <cc:Work
         rdf:about="">
        <dc:format>image/svg+xml</dc:format>
        <dc:type
           rdf:resource="http://purl.org/dc/dcmitype/StillImage" />
        <dc:title></dc:title>
      </cc:Work>
    </rdf:RDF>
  </metadata>
  <g
     inkscape:label="Layer 1"
     inkscape:groupmode="layer"
     id="layer1"
     transform="translate(58.500195,-149.53734)">
    <g
       id="g3366"
       transform="matrix(0.38875694,0,0,0.38875694,-34.902098,96.747845)">
      <path
         id="path7141"
         d="m -43.769054,139.86024 -2.833247,-0.47405 0.25218,1.59715 z m 0,0"
         style="fill:#002e5e;fill-opacity:1;fill-rule:nonzero;stroke:none;stroke-width:0.35277778"
         inkscape:connector-curvature="0" />
      <path
         id="path7143"
         d="m -42.674893,142.31728 -1.451074,0.71245 -5.189693,-0.75655 5.546606,-2.41294 z m 0,0"
         style="fill:#008aca;fill-opacity:1;fill-rule:nonzero;stroke:none;stroke-width:0.35277778"
         inkscape:connector-curvature="0" />
      <path
         id="path7145"
         d="m -49.31566,142.27318 7.08036,1.03215 -5.051887,2.59485 -2.39365,-0.1447 z m 0,0"
         style="fill:#002e5e;fill-opacity:1;fill-rule:nonzero;stroke:none;stroke-width:0.35277778"
         inkscape:connector-curvature="0" />
      <path
         id="path7147"
         d="m -40.908249,146.28327 -2.261358,1.3243 -6.664195,-0.39963 7.598502,-3.90261 z m 0,0"
         style="fill:#008aca;fill-opacity:1;fill-rule:nonzero;stroke:none;stroke-width:0.35277778"
         inkscape:connector-curvature="0" />
      <path
         id="path7149"
         d="m -49.833802,147.20794 9.592526,0.57326 -6.172236,3.84473 -3.902604,0.16398 z m 0,0"
         style="fill:#002e5e;fill-opacity:1;fill-rule:nonzero;stroke:none;stroke-width:0.35277778"
         inkscape:connector-curvature="0" />
      <path
         id="path7151"
         d="m -38.674449,151.30071 -1.566827,-3.51951 -16.858919,10.49928 10.152006,-1.06799 z m 0,0"
         style="fill:#008aca;fill-opacity:1;fill-rule:nonzero;stroke:none;stroke-width:0.35277778"
         inkscape:connector-curvature="0" />
      <path
         id="path7153"
         d="m -33.564681,143.59334 c -0.191548,0 -0.367937,0.0358 -0.529167,0.10887 -0.16123,0.0717 -0.296277,0.16536 -0.40101,0.27698 l 0,3.80201 -1.475877,0 0,-7.22781 1.475877,0 0,2.43499 c 0.158475,-0.13091 0.350023,-0.24115 0.574644,-0.32659 0.22462,-0.0854 0.475421,-0.12816 0.752408,-0.12816 0.660079,0 1.174086,0.20257 1.539268,0.60909 0.366557,0.40515 0.549836,1.00735 0.549836,1.80661 l 0,2.83187 -1.475878,0 0,-2.81258 c 0,-0.48782 -0.08268,-0.83922 -0.252179,-1.05281 -0.168124,-0.21498 -0.420303,-0.32247 -0.757922,-0.32247"
         style="fill:#002e5e;fill-opacity:1;fill-rule:nonzero;stroke:none;stroke-width:0.35277778"
         inkscape:connector-curvature="0" />
      <path
         id="path7155"
         d="m -29.972137,142.65214 1.474502,0 0.0013,5.12906 -1.475881,0 z m -0.09922,-1.35736 c 0,-0.24392 0.06477,-0.42857 0.192926,-0.55398 0.129538,-0.1254 0.344509,-0.18879 0.649055,-0.18879 0.30317,0 0.519523,0.0634 0.647679,0.18879 0.129537,0.12541 0.194305,0.31006 0.194305,0.55398 0,0.25218 -0.06477,0.43821 -0.194305,0.55948 -0.128156,0.12264 -0.344509,0.18328 -0.647679,0.18328 -0.303165,0 -0.519517,-0.0606 -0.649055,-0.18328 -0.128155,-0.12127 -0.192925,-0.3073 -0.192925,-0.55948"
         style="fill:#002e5e;fill-opacity:1;fill-rule:nonzero;stroke:none;stroke-width:0.35277778"
         inkscape:connector-curvature="0" />
      <path
         id="path7157"
         d="m -26.123275,145.15742 c 0,0.52778 0.107487,0.92053 0.322461,1.17822 0.213595,0.25769 0.4768,0.38723 0.78686,0.38723 0.184658,0 0.359667,-0.0331 0.525031,-0.0992 0.165365,-0.0661 0.30317,-0.16261 0.416169,-0.28801 l 0,-2.35645 c -0.112999,-0.11851 -0.250804,-0.21359 -0.416169,-0.2825 -0.165364,-0.0689 -0.340373,-0.10335 -0.525031,-0.10335 -0.31006,0 -0.573265,0.12816 -0.78686,0.38585 -0.214974,0.2577 -0.322461,0.65044 -0.322461,1.17823 m -1.495171,0 c 0,-0.40239 0.05926,-0.76619 0.177765,-1.08865 0.119891,-0.32384 0.283877,-0.59945 0.490583,-0.82683 0.208082,-0.22875 0.449241,-0.40376 0.723469,-0.52503 0.272854,-0.12265 0.569129,-0.18328 0.886079,-0.18328 0.263205,0 0.507119,0.0413 0.727604,0.12402 0.220488,0.0827 0.40101,0.19293 0.538813,0.33073 l 0.0013,-0.33624 1.475878,0 0,4.64537 c -0.0013,0.43546 -0.04961,0.80753 -0.148826,1.11897 -0.09922,0.30868 -0.256315,0.56362 -0.46991,0.76205 -0.214977,0.19706 -0.49334,0.34451 -0.832337,0.44098 -0.340376,0.0951 -0.751031,0.14469 -1.233345,0.14469 -0.336243,0 -0.657323,-0.0317 -0.960493,-0.0909 -0.303167,-0.0593 -0.584287,-0.15572 -0.841981,-0.28801 l 0.07855,-1.15756 c 0.232889,0.16537 0.487823,0.29077 0.768945,0.37621 0.279741,0.0854 0.564994,0.12816 0.85576,0.12816 0.396875,0 0.712447,-0.0909 0.950847,-0.27148 0.2384,-0.1819 0.356912,-0.48369 0.355534,-0.90674 l 0.0013,-0.22738 c -0.139182,0.13918 -0.319704,0.24942 -0.540192,0.33073 -0.220485,0.0841 -0.4644,0.12402 -0.727604,0.12402 -0.31695,0 -0.611849,-0.0606 -0.886079,-0.1819 -0.274182,-0.12264 -0.51396,-0.29766 -0.722045,-0.52641 -0.20946,-0.226 -0.373448,-0.50299 -0.491961,-0.82545 -0.118509,-0.32384 -0.177765,-0.68626 -0.177765,-1.09002"
         style="fill:#002e5e;fill-opacity:1;fill-rule:nonzero;stroke:none;stroke-width:0.35277778"
         inkscape:connector-curvature="0" />
      <path
         id="path7159"
         d="m -19.042914,143.59334 c -0.191548,0 -0.369313,0.0358 -0.530542,0.10887 -0.162611,0.0717 -0.296281,0.16536 -0.401011,0.27698 l 0,3.80201 -1.474502,0 -0.0013,-7.22781 1.475881,0 0,2.43499 c 0.158474,-0.13091 0.35002,-0.24115 0.57464,-0.32659 0.223245,-0.0854 0.475425,-0.12816 0.752412,-0.12816 0.660077,0 1.174086,0.20257 1.540642,0.60909 0.365183,0.40515 0.54846,1.00735 0.54846,1.80661 l 0.0013,2.83187 -1.477259,0 0.0013,-2.81258 c 0,-0.48782 -0.08544,-0.83922 -0.252179,-1.05281 -0.168122,-0.21498 -0.42168,-0.32247 -0.757923,-0.32247"
         style="fill:#002e5e;fill-opacity:1;fill-rule:nonzero;stroke:none;stroke-width:0.35277778"
         inkscape:connector-curvature="0" />
      <path
         id="path7161"
         d="m -11.444414,142.65214 0.930177,3.40652 0.9508492,-3.40652 1.504815,0 -1.672939,5.12906 -1.5061942,0 -0.870921,-3.29627 -0.870921,3.29627 -1.504815,0 -1.674317,-5.12906 1.504817,0 0.950847,3.40652 0.930177,-3.40652 z m 0,0"
         style="fill:#002e5e;fill-opacity:1;fill-rule:nonzero;stroke:none;stroke-width:0.35277778"
         inkscape:connector-curvature="0" />
      <path
         id="path7163"
         d="m -5.6015298,146.87996 c 0.20533,0 0.402389,-0.0331 0.595312,-0.10335 0.190172,-0.0689 0.345887,-0.17639 0.464399,-0.32246 l 0,-0.95084 -0.901236,0 c -0.336241,0 -0.573265,0.0648 -0.712447,0.1943 -0.139181,0.12816 -0.208081,0.30592 -0.208081,0.52916 0,0.22463 0.06752,0.38861 0.203946,0.4961 0.133673,0.10473 0.321085,0.15709 0.558107,0.15709 m -0.355534,1.01975 c -0.264584,0 -0.512628,-0.0345 -0.742762,-0.10748 -0.231511,-0.073 -0.432705,-0.17915 -0.60496,-0.31833 -0.170878,-0.1378 -0.305924,-0.31006 -0.406519,-0.51401 -0.097843,-0.20533 -0.147449,-0.43959 -0.147449,-0.7028 0,-0.53468 0.201192,-0.96187 0.603578,-1.28295 0.402389,-0.31971 0.990812,-0.47956 1.762514,-0.47956 l 0.950843,0 0,-0.23565 c 0,-0.24804 -0.07303,-0.42167 -0.221863,-0.51951 -0.148828,-0.0978 -0.401008,-0.14608 -0.75792,-0.14608 -0.31695,0 -0.62701,0.04 -0.931556,0.11989 -0.303167,0.0813 -0.580154,0.19017 -0.832334,0.32522 l -0.137806,-1.05007 c 0.257694,-0.13091 0.570511,-0.24115 0.935691,-0.32659 0.366557,-0.0854 0.73863,-0.12816 1.114833,-0.12816 0.797883,0 1.383551,0.15021 1.752864,0.44924 0.369316,0.30179 0.553969,0.80478 0.553969,1.51171 l 0.0013,3.28662 -1.477259,0 0,-0.33624 c -0.217731,0.16536 -0.429948,0.28388 -0.638029,0.3514 -0.208087,0.0689 -0.467156,0.10335 -0.777216,0.10335"
         style="fill:#002e5e;fill-opacity:1;fill-rule:nonzero;stroke:none;stroke-width:0.35277778"
         inkscape:connector-curvature="0" />
      <path
         id="path7165"
         d="m -0.63645678,147.77155 -2.06016802,-5.11941 1.544783,0 1.21818402,3.40652 1.20853998,-3.40652 1.54478,0 -2.62378298,7.04178 -1.54615802,0 z m 0,0"
         style="fill:#002e5e;fill-opacity:1;fill-rule:nonzero;stroke:none;stroke-width:0.35277778"
         inkscape:connector-curvature="0" />
      <g
         id="g7167"
         clip-path="url(#clip3)"
         style="clip-rule:nonzero"
         transform="matrix(0.3527778,0,0,0.3527778,-209.60081,19.608483)">
        <path
           id="path7169"
           d="m 608.45703,363.66016 c -0.99609,0 -1.94922,-0.0899 -2.86719,-0.27735 -0.91797,-0.1875 -1.76562,-0.48047 -2.55468,-0.87109 l 0.19921,-3.36719 c 0.71094,0.48828 1.47266,0.85938 2.28516,1.12109 0.81641,0.26563 1.66406,0.39454 2.54297,0.39454 1.51562,0 2.27344,-0.48829 2.27344,-1.46094 0,-0.20703 -0.043,-0.39453 -0.125,-0.5625 -0.0859,-0.16797 -0.23828,-0.33203 -0.46485,-0.48828 -0.22265,-0.15625 -0.52734,-0.31641 -0.89843,-0.46485 -0.375,-0.14843 -0.83985,-0.30859 -1.40235,-0.47656 -1.51953,-0.42969 -2.62109,-1.02734 -3.3125,-1.78516 -0.69531,-0.75781 -1.03906,-1.64843 -1.03906,-2.67968 0,-1.40235 0.50781,-2.46875 1.53125,-3.19922 1.01953,-0.73047 2.49219,-1.09375 4.41797,-1.09375 0.8789,0 1.72656,0.082 2.54297,0.25 0.8125,0.17187 1.57422,0.40234 2.28515,0.70312 l -0.30859,3.08594 c -0.59766,-0.31641 -1.25391,-0.57031 -1.96484,-0.75391 -0.71094,-0.1875 -1.42969,-0.28125 -2.16016,-0.28125 -0.76563,0 -1.3125,0.10157 -1.62891,0.3086 -0.3164,0.20312 -0.47656,0.47265 -0.47656,0.8125 0,0.41406 0.1875,0.76953 0.55859,1.0664 0.375,0.30079 1.10547,0.60938 2.19532,0.92579 0.85937,0.26171 1.57422,0.55078 2.14453,0.87109 0.57031,0.32031 1.03125,0.66406 1.375,1.03906 0.34765,0.375 0.59375,0.77735 0.74219,1.20703 0.15234,0.42969 0.22656,0.87891 0.22656,1.34766 0,1.5 -0.50781,2.64062 -1.52735,3.4375 -1.02343,0.79687 -2.55078,1.19141 -4.58984,1.19141"
           style="fill:#002e5e;fill-opacity:1;fill-rule:nonzero;stroke:none"
           inkscape:connector-curvature="0" />
      </g>
      <path
         id="path7171"
         d="m -32.837077,153.0522 c -0.02893,-0.41755 -0.15434,-0.74828 -0.373447,-0.99357 -0.219111,-0.24529 -0.518143,-0.36931 -0.895728,-0.36931 -0.376202,0 -0.673858,0.12402 -0.891589,0.36931 -0.216352,0.24529 -0.338999,0.57602 -0.367937,0.99357 z m -2.528701,0.61736 c 0.02893,0.42306 0.173634,0.76067 0.432703,1.01561 0.260449,0.25356 0.613227,0.38034 1.058334,0.38034 0.263207,0 0.504363,-0.0289 0.724849,-0.0896 0.219107,-0.0593 0.425813,-0.1695 0.620116,-0.33073 l 0.07855,0.69454 c -0.183278,0.11437 -0.396875,0.20257 -0.639409,0.26596 -0.242535,0.0634 -0.508498,0.0937 -0.80064,0.0937 -0.365181,0 -0.687642,-0.0593 -0.964629,-0.17915 -0.276983,-0.11989 -0.508494,-0.28387 -0.694531,-0.49333 -0.184654,-0.20809 -0.325215,-0.45338 -0.418923,-0.73725 -0.09509,-0.2825 -0.141937,-0.58843 -0.141937,-0.92053 0,-0.34865 0.04685,-0.66422 0.141937,-0.94672 0.09371,-0.28249 0.228755,-0.52641 0.402389,-0.72898 0.173633,-0.20257 0.38585,-0.35967 0.633895,-0.47129 0.248049,-0.11162 0.525032,-0.16674 0.826823,-0.16674 0.319705,0 0.606337,0.0565 0.857141,0.17226 0.25218,0.11299 0.463021,0.27422 0.633899,0.48369 0.170875,0.20808 0.301788,0.45613 0.389982,0.74551 0.08957,0.28801 0.133671,0.60359 0.133671,0.94672 l 0,0.13229 c 0,0.0427 -0.0028,0.0882 -0.0083,0.13367 z m 0,0"
         style="fill:#002e5e;fill-opacity:1;fill-rule:nonzero;stroke:none;stroke-width:0.35277778"
         inkscape:connector-curvature="0" />
      <path
         id="path7173"
         d="m -29.354777,151.68932 c -0.256312,0 -0.486444,0.0524 -0.689017,0.15434 -0.202571,0.10335 -0.367935,0.23702 -0.493337,0.40239 l 0,3.35139 -0.719336,0 0,-4.43867 0.719336,0 0,0.35967 c 0.148828,-0.1378 0.330729,-0.24942 0.544325,-0.33486 0.214971,-0.0854 0.458885,-0.12816 0.733115,-0.12816 0.570508,0 1.021128,0.17088 1.3491,0.50987 0.327972,0.339 0.493337,0.8475 0.493337,1.52136 l 0,2.51079 -0.719334,0 0,-2.52871 c 0,-0.48507 -0.101975,-0.83646 -0.305927,-1.05419 -0.20257,-0.21636 -0.505738,-0.32522 -0.912262,-0.32522"
         style="fill:#002e5e;fill-opacity:1;fill-rule:nonzero;stroke:none;stroke-width:0.35277778"
         inkscape:connector-curvature="0" />
      <path
         id="path7175"
         d="m -23.317591,152.23778 c -0.130911,-0.18328 -0.297656,-0.32109 -0.501605,-0.41479 -0.20257,-0.0951 -0.432702,-0.14194 -0.68902,-0.14194 -0.188788,0 -0.366557,0.0358 -0.531921,0.10749 -0.165365,0.0717 -0.308682,0.17501 -0.42857,0.31143 -0.11989,0.13781 -0.213595,0.30869 -0.282498,0.51539 -0.0689,0.20533 -0.103351,0.44235 -0.103351,0.71107 0,0.26872 0.03446,0.50436 0.103351,0.71106 0.0689,0.20533 0.162608,0.37896 0.282498,0.51815 0.119888,0.14056 0.263205,0.24667 0.42857,0.31695 0.165364,0.0717 0.343133,0.10748 0.531921,0.10748 0.256318,0 0.48645,-0.0482 0.68902,-0.14607 0.203949,-0.0965 0.370694,-0.23702 0.501605,-0.41892 z m 0,-1.07901 0.720714,0 0,4.11345 c 0,0.71933 -0.16674,1.23885 -0.497469,1.55856 -0.332108,0.3197 -0.851631,0.48093 -1.559941,0.48093 -0.559486,0 -1.056955,-0.11851 -1.491036,-0.35277 l 0.05099,-0.73587 c 0.223243,0.14744 0.456131,0.26044 0.698667,0.33761 0.242536,0.0772 0.501605,0.11576 0.775835,0.11576 0.445109,0 0.773078,-0.0951 0.985298,-0.28663 0.210838,-0.19155 0.316947,-0.53055 0.316947,-1.01562 l 0,-0.22324 c -0.148826,0.14331 -0.32797,0.25632 -0.540192,0.339 -0.210836,0.0827 -0.44786,0.12402 -0.711065,0.12402 -0.274227,0 -0.534681,-0.0524 -0.779971,-0.15848 -0.245289,-0.1061 -0.461642,-0.25631 -0.6463,-0.45337 -0.186034,-0.19843 -0.332108,-0.43684 -0.436838,-0.72071 -0.106108,-0.2825 -0.158474,-0.60083 -0.158474,-0.95498 0,-0.35416 0.05237,-0.67111 0.158474,-0.95223 0.10473,-0.27836 0.250804,-0.51814 0.436838,-0.7152 0.184658,-0.19706 0.401011,-0.34864 0.6463,-0.45337 0.24529,-0.10611 0.505744,-0.15848 0.779971,-0.15848 0.263205,0 0.500229,0.04 0.711065,0.11851 0.212222,0.0813 0.391366,0.19293 0.540192,0.33487 z m 0,0"
         style="fill:#002e5e;fill-opacity:1;fill-rule:nonzero;stroke:none;stroke-width:0.35277778"
         inkscape:connector-curvature="0" />
      <path
         id="path7177"
         d="m -21.448969,149.34114 0.719336,0 0,6.2563 -0.719336,0 z m 0,0"
         style="fill:#002e5e;fill-opacity:1;fill-rule:nonzero;stroke:none;stroke-width:0.35277778"
         inkscape:connector-curvature="0" />
      <path
         id="path7179"
         d="m -18.134787,155.06551 c 0.274227,0 0.525031,-0.0455 0.749652,-0.13642 0.226001,-0.0923 0.402389,-0.22876 0.527788,-0.41204 l 0,-1.079 -1.080381,0 c -0.42857,0 -0.74276,0.0744 -0.942578,0.226 -0.199816,0.15296 -0.300411,0.35691 -0.300411,0.61322 0,0.27423 0.09784,0.47405 0.292142,0.60083 0.194302,0.1254 0.446487,0.18741 0.753788,0.18741 m -0.0689,0.6339 c -0.24529,0 -0.472671,-0.0289 -0.680752,-0.0896 -0.209463,-0.0592 -0.389985,-0.14883 -0.544327,-0.26596 -0.15434,-0.11713 -0.274228,-0.26321 -0.359667,-0.43684 -0.08544,-0.17363 -0.128156,-0.37758 -0.128156,-0.61185 0,-0.452 0.168119,-0.81028 0.505737,-1.07625 0.336244,-0.26596 0.817179,-0.39825 1.438675,-0.39825 l 1.11483,0 0,-0.30868 c 0,-0.30868 -0.09095,-0.52365 -0.270095,-0.64217 -0.180522,-0.11988 -0.46991,-0.18052 -0.86954,-0.18052 -0.239778,0 -0.491963,0.0303 -0.755165,0.0909 -0.26183,0.0592 -0.496094,0.14607 -0.701421,0.26045 l -0.07717,-0.64217 c 0.210842,-0.10335 0.451996,-0.18603 0.723469,-0.24942 0.271473,-0.062 0.547082,-0.0937 0.828204,-0.0937 0.296275,0 0.558104,0.0289 0.788236,0.0854 0.227375,0.0565 0.420302,0.1502 0.577398,0.27836 0.157096,0.12953 0.275608,0.29765 0.355534,0.50574 0.07993,0.20946 0.11989,0.4644 0.11989,0.76756 l 0,2.90491 -0.719338,0 0,-0.34313 c -0.15434,0.14883 -0.347263,0.26045 -0.577395,0.33486 -0.232889,0.073 -0.489204,0.11024 -0.768945,0.11024"
         style="fill:#002e5e;fill-opacity:1;fill-rule:nonzero;stroke:none;stroke-width:0.35277778"
         inkscape:connector-curvature="0" />
      <path
         id="path7181"
         d="m -13.171095,151.68932 c -0.256313,0 -0.486445,0.0524 -0.689018,0.15434 -0.203951,0.10335 -0.366556,0.23702 -0.493337,0.40239 l 0,3.35139 -0.719336,0 0,-4.43867 0.719336,0 0,0.35967 c 0.148829,-0.1378 0.33073,-0.24942 0.544325,-0.33486 0.214971,-0.0854 0.458885,-0.12816 0.733116,-0.12816 0.570507,0 1.021127,0.17088 1.349099,0.50987 0.329354,0.339 0.493337,0.8475 0.493337,1.52136 l 0,2.51079 -0.719333,0 0,-2.52871 c 0,-0.48507 -0.101976,-0.83646 -0.304546,-1.05419 -0.203952,-0.21636 -0.508498,-0.32522 -0.913643,-0.32522"
         style="fill:#002e5e;fill-opacity:1;fill-rule:nonzero;stroke:none;stroke-width:0.35277778"
         inkscape:connector-curvature="0" />
      <path
         id="path7183"
         d="m -7.1215058,152.23778 c -0.130913,-0.17639 -0.299035,-0.31282 -0.505738,-0.4079 -0.205327,-0.0937 -0.428572,-0.14056 -0.668348,-0.14056 -0.199819,0 -0.385852,0.0358 -0.556731,0.10748 -0.170873,0.0717 -0.319704,0.17915 -0.446482,0.32109 -0.125402,0.14331 -0.221866,0.31832 -0.290766,0.52641 -0.06891,0.20946 -0.101978,0.45337 -0.101978,0.73311 0,0.27975 0.03306,0.52504 0.101978,0.73725 0.0689,0.21085 0.165364,0.38723 0.290766,0.52779 0.126778,0.13919 0.275609,0.24529 0.446482,0.31695 0.170879,0.0703 0.356912,0.10611 0.556731,0.10611 0.239776,0 0.463021,-0.0469 0.668348,-0.14056 0.206703,-0.0951 0.374825,-0.23013 0.505738,-0.4079 z m 0,3.01652 c -0.148825,0.13781 -0.329351,0.24529 -0.544325,0.32522 -0.213598,0.0799 -0.446484,0.11989 -0.697288,0.11989 -0.292145,0 -0.563618,-0.0524 -0.814419,-0.15848 -0.252182,-0.10473 -0.471289,-0.25907 -0.655947,-0.46302 -0.1860342,-0.20257 -0.3321082,-0.44648 -0.4368382,-0.73174 -0.106108,-0.28663 -0.158475,-0.60771 -0.158475,-0.96876 0,-0.35966 0.05237,-0.68212 0.158475,-0.96875 0.10473,-0.28526 0.250804,-0.52917 0.4368382,-0.73174 0.184658,-0.20258 0.403765,-0.35692 0.655947,-0.46302 0.250801,-0.10611 0.522274,-0.15848 0.814419,-0.15848 0.250804,0 0.48369,0.04 0.697288,0.11989 0.214974,0.0799 0.3955,0.18879 0.544325,0.32522 l 0,-2.15939 0.720714,0 0,6.2563 -0.720714,0 z m 0,0"
         style="fill:#002e5e;fill-opacity:1;fill-rule:nonzero;stroke:none;stroke-width:0.35277778"
         inkscape:connector-curvature="0" />
    </g>
  </g>
</svg>
